<svg width="14" height="14" viewBox="0 0 14 14" fill="none" xmlns="http://www.w3.org/2000/svg">
<path d="M1.75 2.91667C1.75 2.27237 2.27237 1.75 2.91667 1.75H11.0833C11.7276 1.75 12.25 2.27237 12.25 2.91667V11.0833C12.25 11.7276 11.7276 12.25 11.0833 12.25H2.91667C2.27237 12.25 1.75 11.7276 1.75 11.0833V2.91667Z" fill="#FF41C8"/>
<path d="M2.625 2.625V11.375H11.375V2.625H2.625ZM5.56879 6.32771L6.12704 4.9035H7.08692L6.11275 6.96004L7.10967 9.05071H6.13842L5.56879 7.60083L5.00208 9.05071H4.03083L5.02775 6.96004L4.05067 4.9035H5.01054L5.56879 6.32771ZM7.31179 7.41592C7.31179 6.91075 7.39725 6.53392 7.56817 6.28512C7.73908 6.03633 7.98758 5.91208 8.31454 5.91208C8.55167 5.91208 8.74942 6.01475 8.90692 6.21979V4.676H9.71862V9.051H8.98654L8.9495 8.73775C8.78442 8.98479 8.5715 9.10817 8.31133 9.10817C7.98875 9.10817 7.74229 8.98479 7.57225 8.73775C7.40221 8.49071 7.31529 8.12817 7.3115 7.64983V7.41592H7.31179ZM8.12087 7.61804C8.12087 7.92196 8.15296 8.13429 8.21771 8.25475C8.28246 8.37521 8.39154 8.43558 8.54525 8.43558C8.70479 8.43558 8.82525 8.36442 8.90692 8.22208V6.81508C8.82729 6.66312 8.70742 6.58729 8.54817 6.58729C8.4 6.58729 8.29179 6.64708 8.22354 6.76667C8.15529 6.88625 8.12087 7.09917 8.12087 7.40483V7.61804Z" fill="#16020B"/>
</svg>
