<svg width="473" height="575" viewBox="0 0 473 575" fill="none" xmlns="http://www.w3.org/2000/svg">
<path d="M224.71 483.764C212.298 477.705 196.797 469.791 190.265 466.178L178.389 459.607L178.164 442.808C178.041 433.568 177.443 420.406 176.835 413.56L175.731 401.111L150.949 413.474C137.319 420.273 123.114 426.742 119.383 427.849C112.652 429.845 112.505 429.812 100.265 423.607C93.4809 420.168 78.7798 412.779 67.5959 407.188L47.2614 397.021L46.969 297.205L46.6765 197.389L55.5303 192.478C60.3998 189.777 76.1476 181.594 90.5254 174.294L116.667 161.021L125.139 164.602C129.798 166.572 142.905 172.707 154.265 178.235C165.624 183.764 175.066 188.143 175.247 187.966C176.095 187.139 177.385 163.043 177.404 147.674L177.425 130.544L212.337 112.962L247.25 95.3792L279.045 110.513C356.177 147.227 392.483 164.809 420.174 178.857L449.834 193.904L448.857 203.936C448.32 209.454 447.841 225.035 447.792 238.562L447.705 263.156L429.227 272.232C408.125 282.597 390.197 292.294 390.12 293.384C390.053 294.326 410.096 304.817 419.946 308.996C424.054 310.738 432.096 314.781 437.819 317.98L448.223 323.797L447.885 359.271L447.547 394.746L420.238 408.472C405.218 416.021 383.991 426.71 373.068 432.224C362.144 437.738 335.704 450.975 314.312 461.64C292.92 472.304 269.356 484.179 261.947 488.029C254.539 491.878 248.208 494.972 247.879 494.904C247.549 494.835 237.124 489.822 224.711 483.764L224.71 483.764Z" fill="white"/>
<path d="M243.487 457.045C244.091 439.106 243.798 429.664 242.587 428.003C241.599 426.65 231.005 421.195 219.043 415.881C207.081 410.567 195.311 405.044 192.887 403.609C190.463 402.173 188.019 401 187.457 401.001C186.895 401.003 186.674 413.617 186.966 429.032L187.498 457.06L214.057 470.196C228.664 477.421 241.06 483.399 241.604 483.48C242.148 483.56 242.995 471.665 243.487 457.045Z" fill="#EACE09"/>
<path d="M300.736 460.366C310.465 455.497 334.065 443.371 353.181 433.42C372.296 423.469 399.722 409.531 414.128 402.446L440.32 389.566L439.769 361.372C439.467 345.865 439.06 333.178 438.864 333.179C438.67 333.179 424.916 339.964 408.302 348.256C391.687 356.547 377.476 363.333 376.723 363.335C375.969 363.338 375.198 338.45 375.01 308.03C374.821 277.61 374.179 249.056 373.581 244.577L372.494 236.432L345.806 250.368L319.119 264.303L318.067 329.538L317.015 394.773L284.95 411.547L252.886 428.321L252.966 455.842L253.047 483.363L268.047 476.291C276.296 472.402 291.007 465.235 300.736 460.366Z" fill="#EACE09"/>
<path d="M135.018 413.802C141.923 410.532 152.981 404.633 159.592 400.692L171.61 393.528L147.153 381.659C133.702 375.13 121.661 369.792 120.394 369.796C118.495 369.802 118.209 374.169 118.761 394.771C119.13 408.531 120.111 419.742 120.946 419.744C121.78 419.746 128.112 417.072 135.018 413.802Z" fill="#4D4D4D"/>
<path d="M110.22 387.752C110.171 370.92 110.732 356.826 111.467 356.432C112.765 355.736 136.026 366.601 206.366 400.753C225.065 409.832 240.954 417.478 241.674 417.743C242.394 418.009 242.744 405.809 242.452 390.632L241.921 363.039L211.212 347.882C158.938 322.081 153.448 319.345 131.807 308.31L110.785 297.591L109.86 264.894L108.935 232.198L94.8261 225.214C87.0659 221.373 75.2064 215.442 68.4716 212.034C61.7368 208.626 55.948 205.839 55.6076 205.84C54.5553 205.843 55.8311 374.383 56.9622 384.777L58.0281 394.572L82.9048 406.468C96.587 413.01 108.35 418.361 109.046 418.359C109.741 418.357 110.269 404.584 110.22 387.752Z" fill="#7851A9"/>
<path d="M287.269 401.326L307.447 391.372L307.419 370.675C307.404 359.292 307.776 347.729 308.247 344.98C309.991 334.798 308.015 335.119 279.797 349.607L253.523 363.096L253.153 390.657L252.783 418.217L259.937 414.748C263.872 412.84 276.171 406.8 287.269 401.326Z" fill="#4D4D4D"/>
<path d="M275.89 341.392C290.582 333.828 302.243 327.331 301.803 326.955C299.832 325.267 268.743 310.294 257.555 305.644L245.165 300.495L238.488 303.789C211.059 317.32 192.926 327.224 192.973 328.648C193.027 330.348 243.523 354.966 247.195 355.082C248.286 355.117 261.199 348.956 275.89 341.392Z" fill="#7851A9" fill-opacity="0.75"/>
<path d="M403.142 342.316C411.969 337.838 422.723 332.507 427.039 330.471C431.356 328.434 434.872 326.446 434.852 326.054C434.775 324.491 394.071 304.614 387.08 302.725C383.566 301.776 383.46 302.081 383.492 313.043C383.53 326.092 385.44 350.464 386.424 350.461C386.792 350.46 394.315 346.795 403.142 342.316Z" fill="#EACE09" fill-opacity="0.75"/>
<path d="M176.245 293.499L176.164 265.896L165.224 259.889C150.337 251.715 121.45 237.943 120.649 238.637C120.291 238.947 119.76 251.266 119.469 266.012L118.941 292.822L135.601 301.617C149.374 308.887 174.327 320.927 175.911 321.066C176.139 321.086 176.289 308.681 176.245 293.499Z" fill="#FED47B"/>
<path d="M225.995 302.062L241.719 294.35L242.081 264.757L242.442 235.163L237.028 237.539C229.923 240.656 189.207 262.501 186.43 264.685C184.721 266.029 184.533 272.05 185.523 293.707L186.772 321.033L198.522 315.404C204.984 312.307 217.347 306.304 225.995 302.062Z" fill="#FFC548"/>
<path d="M306.722 262.868C304.498 261.152 254.349 236.659 253.068 236.663C252.659 236.664 252.377 249.351 252.441 264.855L252.558 293.045L280.325 305.915L308.092 318.785L308.464 291.642C308.745 271.078 308.323 264.103 306.722 262.868L306.722 262.868Z" fill="#EACE09"/>
<path d="M416.103 270.397L439.688 258.349L439.607 230.789L439.526 203.229L432.491 206.297C428.621 207.985 416.357 213.975 405.237 219.609L385.019 229.853L385.046 258.208L385.072 286.562L388.796 284.504C390.844 283.372 403.132 277.024 416.103 270.397L416.103 270.397Z" fill="#FED47B"/>
<path d="M247.026 223.39L311.822 190.641L345.369 206.934C384.441 225.911 375.842 225.957 411.769 206.579L434.521 194.307L409.211 181.987C298.855 128.272 256.453 107.877 251.357 106.061L245.438 103.95L225.925 114.153C215.194 119.765 203.547 126.174 200.043 128.396C194.187 132.111 193.921 132.567 196.745 134.05C198.434 134.937 211.707 141.527 226.241 148.695C240.774 155.863 252.727 162.28 252.803 162.955C252.879 163.63 224.369 179.063 189.448 197.25C146.971 219.372 126.705 230.679 128.22 231.411C129.465 232.013 141.688 237.982 155.383 244.676C169.077 251.37 180.72 256.688 181.255 256.493C181.791 256.299 211.388 241.403 247.026 223.39Z" fill="#FED47B" fill-opacity="0.75"/>
<path d="M325.91 251.196C348.282 239.585 366.616 228.846 365.858 227.796C365.117 226.77 351.453 219.629 322.759 205.274L311.221 199.502L305.347 202.6C302.116 204.303 289.92 210.808 278.244 217.054L257.015 228.411L262.539 231.319C276.145 238.478 313.021 256.337 314.322 256.396C315.115 256.433 320.329 254.092 325.91 251.196Z" fill="#EACE09" fill-opacity="0.75"/>
<path d="M146.099 210.493C153.873 206.303 162.7 201.28 165.716 199.33L171.198 195.784L154.907 187.587C145.947 183.078 133.252 177.273 126.695 174.686L114.774 169.983L105.975 174.555C101.136 177.069 89.112 183.479 79.2543 188.798C61.6601 198.293 61.4023 198.509 65.1999 200.565C67.3276 201.717 79.4722 207.785 92.1879 214.049L115.307 225.438L123.637 221.774C128.218 219.759 138.326 214.683 146.099 210.493Z" fill="#7851A9" fill-opacity="0.75"/>
<path d="M215.304 174.697C227.387 168.543 237.069 163.366 236.818 163.192C235.664 162.391 187.178 138.368 186.718 138.37C185.073 138.374 184.317 155.844 185.282 171.579C186.39 189.65 186.426 189.779 189.866 187.84C191.773 186.764 203.22 180.85 215.304 174.697Z" fill="#FED47B"/>
</svg>
