<svg width="25" height="25" viewBox="0 0 25 25" fill="none" xmlns="http://www.w3.org/2000/svg">
<circle cx="12.3209" cy="12.3209" r="11.3572" fill="white"/>
<g clip-path="url(#clip0_21_179)">
<path d="M14.8193 8.92721C14.8193 8.92721 12.0226 9.56954 11.4094 9.47222C10.6805 9.34727 9.8061 8.85721 9.98034 7.61376C10.148 6.29532 9.63015 5.13154 8.8775 4.95199C7.95116 4.73101 7.37292 5.46198 7.64209 6.59091C8.18308 9.09418 7.7273 11.0048 8.27744 12.7514C8.59463 13.7817 9.15922 15.2626 9.69482 16.1981C10.4745 17.5467 12.566 17.911 13.5897 17.5188L15.6778 16.7686L14.8193 8.92721Z" fill="#8A6859"/>
<path d="M15.9376 16.5002C16.7765 16.3699 19.0436 16.1519 19.0436 16.1519C20.3291 15.9446 20.0658 14.0216 18.7803 14.2289L14.9342 14.7555C14.9513 14.7351 14.6692 16.6872 15.9376 16.5002Z" fill="#8A6859"/>
<path d="M18.8349 14.2052C19.9428 14.1268 20.1521 15.8657 18.8942 15.9572C17.8988 16.0257 16.9001 16.0567 15.4126 16.5463C14.5495 16.8299 13.6897 17.151 13.6897 17.151C12.6456 17.5261 10.714 17.2611 9.95138 15.8921C9.43617 14.9737 8.85777 13.5507 8.56098 12.5376C8.01084 10.7909 8.36793 8.83231 7.82694 6.32905C7.73941 5.97774 7.70384 5.35734 8.11039 5.03823C7.69725 5.28234 7.50124 5.84749 7.66249 6.60801C8.18308 9.09417 7.7273 11.0047 8.27744 12.7514C8.59462 13.7817 9.15922 15.2626 9.69482 16.1981C10.4745 17.5467 12.566 17.911 13.5897 17.5188L15.4765 16.843C17.1107 16.3027 17.8942 16.404 19.0126 16.2302C19.589 16.1229 20.0843 15.7393 19.9941 15.1426C19.8941 14.4334 19.377 14.1387 18.8349 14.2052Z" fill="#705041"/>
<path d="M11.2969 9.4821C14.5692 8.23118 15.6239 8.83768 16.1746 9.29948C17.1569 10.158 16.0313 11.5416 14.9695 11.068L13.6635 10.1813C12.5581 9.42805 10.072 9.94864 11.2969 9.4821Z" fill="#8A6859"/>
<path d="M10.6795 14.071C11.9453 13.6386 12.6412 12.3116 12.301 11.0189C12.3892 11.1623 12.4774 11.3057 12.5109 11.4728C12.8689 12.5373 12.3269 13.6807 11.2828 14.0558C10.9894 14.1571 10.6519 14.1868 10.3657 14.1552C10.4749 14.1078 10.5874 14.098 10.6795 14.071Z" fill="#705041"/>
<path d="M15.1815 13.0522L14.6269 13.8378L13.696 13.9951C12.5809 14.2064 12.9468 16.007 14.0448 15.8161L15.3645 15.568C15.6238 15.5075 15.7672 15.4193 15.9178 15.1982L16.6881 14.0725C17.3453 13.1645 15.8182 12.1272 15.1815 13.0522Z" fill="#8A6859"/>
<path d="M16.6684 13.8475L15.8777 14.9561C15.7099 15.1976 15.5665 15.2858 15.3244 15.3259L14.0047 15.574C13.5205 15.6543 13.1737 15.3636 13.0454 14.9781C13.0882 15.4656 13.4685 15.9234 14.0448 15.8161L15.3645 15.568C15.6238 15.5075 15.7672 15.4193 15.9178 15.1982L16.6881 14.0725C16.8559 13.831 16.8703 13.5652 16.7927 13.3264C16.8091 13.5139 16.7677 13.6876 16.6684 13.8475Z" fill="#705041"/>
<path d="M14.7274 11.1082L14.1077 12.0128L13.0097 12.2037C11.7274 12.4485 12.1197 14.5492 13.4223 14.3214L14.9842 14.0332C15.2809 13.9693 15.4618 13.8779 15.6262 13.5989L16.513 12.2929C17.2524 11.2455 15.4635 10.0232 14.7274 11.1082Z" fill="#8A6859"/>
<path d="M16.4524 12.0337L15.5657 13.3397C15.3808 13.6015 15.1999 13.693 14.9236 13.7739L13.3618 14.0622C12.7855 14.1695 12.3947 13.807 12.2426 13.3669C12.3124 13.9465 12.7368 14.4761 13.4052 14.3418L14.9671 14.0535C15.2638 13.9897 15.4447 13.8982 15.6091 13.6193L16.4959 12.3133C16.6978 12.031 16.709 11.7277 16.6077 11.4343C16.6274 11.6593 16.5893 11.8705 16.4524 12.0337Z" fill="#705041"/>
<path d="M14.62 9.45486L14.0003 10.3595L12.9023 10.5504C11.6201 10.7952 12.0123 12.8959 13.315 12.6681L14.8768 12.3799C15.1735 12.316 15.3544 12.2246 15.5189 11.9456L16.4056 10.6396C17.145 9.59217 15.3561 8.36993 14.62 9.45486Z" fill="#8A6859"/>
<path d="M14.1911 10.3806C14.1911 10.3806 14.2299 9.96147 14.6641 9.52657C14.1897 9.71937 13.97 10.2299 13.97 10.2299C13.97 10.2299 12.3648 10.2386 12.1366 11.2978C12.6233 10.3859 14.1911 10.3806 14.1911 10.3806Z" fill="#705041"/>
<path d="M16.328 10.4008L15.4412 11.7068C15.2564 11.9686 15.0755 12.0601 14.7991 12.1411L13.2373 12.4293C12.661 12.5366 12.2702 12.1741 12.1182 11.734C12.188 12.3136 12.6123 12.8432 13.2808 12.7089L14.8426 12.4207C15.1393 12.3568 15.3202 12.2654 15.4847 11.9864L16.3714 10.6804C16.5734 10.3981 16.5845 10.0948 16.4832 9.80143C16.52 10.006 16.4615 10.2001 16.328 10.4008Z" fill="#705041"/>
</g>
<defs>
<clipPath id="clip0_21_179">
<rect width="17.0358" height="17.0358" fill="white" transform="translate(0.320854 13.3744) rotate(-50.0175)"/>
</clipPath>
</defs>
</svg>
