<svg width="24" height="24" viewBox="0 0 24 24" fill="none" xmlns="http://www.w3.org/2000/svg">
<g clip-path="url(#clip0_21_179)">
<path d="M14.4984 8.60636C14.4984 8.60636 11.7018 9.24869 11.0886 9.15137C10.3596 9.02642 9.48523 8.53636 9.65948 7.29291C9.82714 5.97447 9.30929 4.81069 8.55664 4.63114C7.6303 4.41016 7.05206 5.14113 7.32123 6.27006C7.86221 8.77333 7.40644 10.6839 7.95658 12.4306C8.27376 13.4608 8.83836 14.9417 9.37396 15.8772C10.1537 17.2258 12.2452 17.5902 13.2688 17.198L15.3569 16.4478L14.4984 8.60636Z" fill="#8A6859"/>
<path d="M15.6168 16.1794C16.4556 16.049 18.7227 15.8311 18.7227 15.8311C20.0082 15.6238 19.7449 13.7007 18.4594 13.9081L14.6134 14.4347C14.6305 14.4143 14.3484 16.3663 15.6168 16.1794Z" fill="#8A6859"/>
<path d="M18.514 13.8844C19.6219 13.806 19.8312 15.5448 18.5733 15.6364C17.5779 15.7049 16.5793 15.7359 15.0918 16.2254C14.2286 16.5091 13.3688 16.8302 13.3688 16.8302C12.3247 17.2053 10.3931 16.9403 9.63051 15.5713C9.11531 14.6529 8.5369 13.2299 8.24011 12.2167C7.68997 10.4701 8.04706 8.51146 7.50608 6.0082C7.41855 5.65689 7.38297 5.03649 7.78953 4.71738C7.37639 4.96149 7.18038 5.52664 7.34162 6.28716C7.86221 8.77332 7.40644 10.6839 7.95658 12.4306C8.27376 13.4608 8.83835 14.9417 9.37396 15.8772C10.1537 17.2258 12.2452 17.5901 13.2688 17.198L15.1556 16.5222C16.7898 15.9819 17.5734 16.0831 18.6918 15.9094C19.2681 15.8021 19.7635 15.4185 19.6733 14.8218C19.5732 14.1126 19.0561 13.8179 18.514 13.8844Z" fill="#705041"/>
<path d="M10.9761 9.16125C14.2484 7.91033 15.303 8.51683 15.8537 8.97863C16.836 9.83712 15.7105 11.2208 14.6486 10.7472L13.3426 9.86041C12.2373 9.1072 9.75112 9.62779 10.9761 9.16125Z" fill="#8A6859"/>
<path d="M10.3587 13.7501C11.6244 13.3178 12.3204 11.9908 11.9802 10.698C12.0683 10.8414 12.1565 10.9848 12.1901 11.1519C12.548 12.2164 12.006 13.3599 10.962 13.735C10.6685 13.8363 10.331 13.8659 10.0449 13.8344C10.1541 13.787 10.2666 13.7771 10.3587 13.7501Z" fill="#705041"/>
<path d="M14.8606 12.7314L14.3061 13.5169L13.3751 13.6742C12.26 13.8855 12.626 15.6862 13.724 15.4953L15.0437 15.2472C15.3029 15.1866 15.4463 15.0984 15.597 14.8774L16.3673 13.7516C17.0245 12.8437 15.4974 11.8063 14.8606 12.7314Z" fill="#8A6859"/>
<path d="M16.3475 13.5267L15.5568 14.6353C15.3891 14.8767 15.2456 14.9649 15.0035 15.0051L13.6838 15.2532C13.1996 15.3335 12.8529 15.0427 12.7245 14.6572C12.7673 15.1447 13.1476 15.6026 13.724 15.4953L15.0437 15.2472C15.3029 15.1866 15.4463 15.0984 15.5969 14.8774L16.3673 13.7516C16.535 13.5102 16.5495 13.2444 16.4718 13.0056C16.4883 13.1931 16.4468 13.3668 16.3475 13.5267Z" fill="#705041"/>
<path d="M14.4065 10.7873L13.7868 11.692L12.6888 11.8828C11.4066 12.1277 11.7989 14.2283 13.1015 14.0006L14.6633 13.7123C14.96 13.6485 15.1409 13.557 15.3054 13.278L16.1921 11.972C16.9315 10.9246 15.1426 9.70237 14.4065 10.7873Z" fill="#8A6859"/>
<path d="M16.1316 11.7128L15.2448 13.0188C15.06 13.2807 14.8791 13.3722 14.6028 13.4531L13.0409 13.7414C12.4646 13.8487 12.0738 13.4862 11.9218 13.0461C11.9916 13.6257 12.416 14.1552 13.0844 14.021L14.6462 13.7327C14.9429 13.6689 15.1238 13.5774 15.2883 13.2984L16.175 11.9924C16.377 11.7102 16.3881 11.4069 16.2868 11.1135C16.3066 11.3385 16.2684 11.5497 16.1316 11.7128Z" fill="#705041"/>
<path d="M14.2991 9.13401L13.6795 10.0387L12.5814 10.2295C11.2992 10.4744 11.6915 12.575 12.9941 12.3473L14.5559 12.059C14.8526 11.9952 15.0336 11.9037 15.198 11.6247L16.0848 10.3187C16.8242 9.27132 15.0352 8.04908 14.2991 9.13401Z" fill="#8A6859"/>
<path d="M13.8703 10.0597C13.8703 10.0597 13.909 9.64062 14.3432 9.20572C13.8689 9.39852 13.6492 9.90907 13.6492 9.90907C13.6492 9.90907 12.0439 9.91774 11.8157 10.977C12.3025 10.0651 13.8703 10.0597 13.8703 10.0597Z" fill="#705041"/>
<path d="M16.0071 10.0799L15.1204 11.3859C14.9355 11.6478 14.7546 11.7393 14.4783 11.8202L12.9165 12.1085C12.3402 12.2158 11.9493 11.8533 11.7973 11.4132C11.8671 11.9928 12.2915 12.5223 12.9599 12.3881L14.5217 12.0998C14.8184 12.036 14.9994 11.9445 15.1638 11.6655L16.0506 10.3595C16.2525 10.0773 16.2637 9.774 16.1623 9.48058C16.1992 9.68518 16.1407 9.87927 16.0071 10.0799Z" fill="#705041"/>
</g>
<defs>
<clipPath id="clip0_21_179">
<rect width="17.0358" height="17.0358" fill="white" transform="translate(0 13.0536) rotate(-50.0175)"/>
</clipPath>
</defs>
</svg>
