<svg width="24" height="24" viewBox="0 0 24 24" fill="none" xmlns="http://www.w3.org/2000/svg">
<circle cx="12" cy="12" r="12" fill="white"/>
<path d="M8.21325 16.2004L7.371 6.75H16.629L15.7856 16.1989L11.9944 17.25L8.21325 16.2004Z" fill="#1572B6"/>
<path d="M12 16.4467L15.0638 15.5974L15.7845 7.52287H12V16.4467Z" fill="#33A9DC"/>
<path d="M12 10.9466H13.5338L13.6395 9.75975H12V8.60063H14.9062L14.8785 8.9115L14.5939 12.1058H12V10.9466Z" fill="white"/>
<path d="M12.0071 13.9568L12.0019 13.9583L10.7111 13.6095L10.6286 12.6851H9.465L9.62738 14.505L12.0015 15.1643L12.0071 15.1628V13.9568Z" fill="#EBEBEB"/>
<path d="M13.4351 12.0566L13.2956 13.6087L12.003 13.9575V15.1635L14.379 14.505L14.3966 14.3092L14.598 12.0566H13.4351Z" fill="white"/>
<path d="M12.0041 8.60063V9.75975H9.2044L9.18115 9.49913L9.12827 8.9115L9.10052 8.60063H12.0041Z" fill="#EBEBEB"/>
<path d="M12 10.9466V12.1057H10.7254L10.7021 11.8451L10.6496 11.2575L10.6219 10.9466H12Z" fill="#EBEBEB"/>
</svg>
