<svg width="12" height="12" viewBox="0 0 12 12" fill="none" xmlns="http://www.w3.org/2000/svg">
<path d="M2.21325 10.2004L1.371 0.75H10.629L9.78562 10.1989L5.99437 11.25L2.21325 10.2004Z" fill="#1572B6"/>
<path d="M6 10.4467L9.06375 9.59737L9.7845 1.52287H6V10.4467Z" fill="#33A9DC"/>
<path d="M6 4.94663H7.53375L7.6395 3.75975H6V2.60063H8.90625L8.8785 2.9115L8.59387 6.10575H6V4.94663Z" fill="white"/>
<path d="M6.00713 7.95675L6.00188 7.95825L4.71113 7.6095L4.62863 6.68513H3.465L3.62738 8.505L6.0015 9.16425L6.00713 9.16275V7.95675Z" fill="#EBEBEB"/>
<path d="M7.4351 6.05662L7.2956 7.60875L6.00298 7.9575V9.1635L8.37898 8.505L8.39661 8.30925L8.59798 6.05662H7.4351Z" fill="white"/>
<path d="M6.00415 2.60063V3.75975H3.2044L3.18115 3.49913L3.12827 2.9115L3.10052 2.60063H6.00415Z" fill="#EBEBEB"/>
<path d="M6.00002 4.94662V6.10575H4.72539L4.70214 5.84512L4.64964 5.2575L4.62189 4.94662H6.00002Z" fill="#EBEBEB"/>
</svg>
