<svg width="18" height="18" viewBox="0 0 18 18" fill="none" xmlns="http://www.w3.org/2000/svg">
<path d="M15.75 13.875C15.75 14.3723 15.5525 14.8492 15.2008 15.2008C14.8492 15.5525 14.3723 15.75 13.875 15.75H4.125C3.62772 15.75 3.15081 15.5525 2.79917 15.2008C2.44754 14.8492 2.25 14.3723 2.25 13.875V4.125C2.25 3.62772 2.44754 3.15081 2.79917 2.79917C3.15081 2.44754 3.62772 2.25 4.125 2.25H13.875C14.3723 2.25 14.8492 2.44754 15.2008 2.79917C15.5525 3.15081 15.75 3.62772 15.75 4.125V13.875Z" fill="#FF4081"/>
<path d="M12.1479 10.1024C12.0843 10.0828 12.0175 10.0759 11.9513 10.0821C11.8851 10.0884 11.8208 10.1077 11.762 10.1389C11.7033 10.17 11.6513 10.2125 11.609 10.2639C11.5667 10.3152 11.535 10.3744 11.5156 10.438C11.2066 11.4347 10.6471 12.4701 10.3932 12.5267C10.2031 12.5267 9.92975 12.3655 9.659 11.9868C10.2867 10.639 10.6156 8.947 10.6156 7.8175C10.6156 4.66263 9.81912 4 9.15012 4C7.74125 4 7.72513 7.717 7.72513 7.7545C7.72513 8.19175 7.74088 8.5975 7.7705 8.9755C7.55798 8.89699 7.3333 8.8565 7.10675 8.85588C5.65925 8.85588 5 10.2842 5 11.611C5 12.8612 5.70162 14.125 7.26725 14.125C8.00675 14.125 8.63 13.6409 9.13287 12.9171C9.57837 13.3802 10.0449 13.5531 10.3929 13.5531C11.489 13.5531 12.2146 11.5908 12.4764 10.7459C12.5169 10.617 12.5051 10.4773 12.4437 10.357C12.3822 10.2366 12.276 10.1452 12.1479 10.1024ZM7.268 13.099C6.13138 13.099 6.008 12.0584 6.008 11.6106C6.008 11.5401 6.02075 9.8815 7.1075 9.8815C7.5365 9.8815 7.86575 10.2134 7.86575 10.2134C7.89013 10.2396 7.91712 10.2625 7.94525 10.2824C8.08588 10.9964 8.28425 11.5671 8.51375 12.0194C8.13725 12.6711 7.70113 13.099 7.268 13.099ZM9.08787 10.7222C8.87825 9.9985 8.73312 9.02687 8.73312 7.7545C8.73312 6.58225 8.98287 5.479 9.19025 5.10213C9.34925 5.34363 9.60837 6.09588 9.60837 7.8175C9.60837 8.731 9.40625 9.79225 9.08787 10.7222Z" fill="white"/>
</svg>
