<svg width="24" height="24" viewBox="0 0 24 24" fill="none" xmlns="http://www.w3.org/2000/svg">
<circle cx="12" cy="12" r="12" fill="white"/>
<path d="M18.75 16.875C18.75 17.3723 18.5525 17.8492 18.2008 18.2008C17.8492 18.5525 17.3723 18.75 16.875 18.75H7.125C6.62772 18.75 6.15081 18.5525 5.79917 18.2008C5.44754 17.8492 5.25 17.3723 5.25 16.875V7.125C5.25 6.62772 5.44754 6.15081 5.79917 5.79917C6.15081 5.44754 6.62772 5.25 7.125 5.25H16.875C17.3723 5.25 17.8492 5.44754 18.2008 5.79917C18.5525 6.15081 18.75 6.62772 18.75 7.125V16.875Z" fill="#FF4081"/>
<path d="M15.3979 12.8524C15.3343 12.8328 15.2675 12.8259 15.2013 12.8322C15.1351 12.8384 15.0708 12.8577 15.012 12.8889C14.9533 12.9201 14.9013 12.9626 14.859 13.0139C14.8167 13.0652 14.785 13.1244 14.7656 13.188C14.4566 14.1848 13.8971 15.2202 13.6432 15.2768C13.4531 15.2768 13.1797 15.1155 12.909 14.7368C13.5367 13.389 13.8656 11.697 13.8656 10.5675C13.8656 7.41266 13.0691 6.75004 12.4001 6.75004C10.9912 6.75004 10.9751 10.467 10.9751 10.5045C10.9751 10.9418 10.9909 11.3475 11.0205 11.7255C10.808 11.647 10.5833 11.6065 10.3568 11.6059C8.90925 11.6059 8.25 13.0343 8.25 14.361C8.25 15.6113 8.95162 16.875 10.5172 16.875C11.2567 16.875 11.88 16.3909 12.3829 15.6672C12.8284 16.1303 13.2949 16.3032 13.6429 16.3032C14.739 16.3032 15.4646 14.3408 15.7264 13.4959C15.7669 13.367 15.7551 13.2274 15.6937 13.107C15.6322 12.9867 15.526 12.8952 15.3979 12.8524ZM10.518 15.849C9.38138 15.849 9.258 14.8084 9.258 14.3607C9.258 14.2902 9.27075 12.6315 10.3575 12.6315C10.7865 12.6315 11.1158 12.9634 11.1158 12.9634C11.1401 12.9897 11.1671 13.0125 11.1953 13.0324C11.3359 13.7464 11.5343 14.3172 11.7638 14.7694C11.3873 15.4212 10.9511 15.849 10.518 15.849ZM12.3379 13.4723C12.1282 12.7485 11.9831 11.7769 11.9831 10.5045C11.9831 9.33229 12.2329 8.22904 12.4402 7.85216C12.5992 8.09366 12.8584 8.84591 12.8584 10.5675C12.8584 11.481 12.6562 12.5423 12.3379 13.4723Z" fill="white"/>
</svg>
