<svg width="12" height="12" viewBox="0 0 12 12" fill="none" xmlns="http://www.w3.org/2000/svg">
<path d="M8 8C9.10457 8 10 7.10457 10 6C10 4.89543 9.10457 4 8 4C6.89543 4 6 4.89543 6 6C6 7.10457 6.89543 8 8 8Z" fill="#19BCFE"/>
<path fill-rule="evenodd" clip-rule="evenodd" d="M4 12C4.53043 12 5.03914 11.7893 5.41421 11.4142C5.78929 11.0391 6 10.5304 6 10V8H4C3.46957 8 2.96086 8.21071 2.58579 8.58579C2.21071 8.96086 2 9.46957 2 10C2 10.5304 2.21071 11.0391 2.58579 11.4142C2.96086 11.7893 3.46957 12 4 12Z" fill="#09CF83"/>
<path fill-rule="evenodd" clip-rule="evenodd" d="M4 8H6V4H4C3.46957 4 2.96086 4.21071 2.58579 4.58579C2.21071 4.96086 2 5.46957 2 6C2 6.53043 2.21071 7.03914 2.58579 7.41421C2.96086 7.78929 3.46957 8 4 8Z" fill="#A259FF"/>
<path fill-rule="evenodd" clip-rule="evenodd" d="M4 4H6V0H4C3.46957 0 2.96086 0.210714 2.58579 0.585786C2.21071 0.960859 2 1.46957 2 2C2 2.53043 2.21071 3.03914 2.58579 3.41421C2.96086 3.78929 3.46957 4 4 4Z" fill="#F24E1E"/>
<path fill-rule="evenodd" clip-rule="evenodd" d="M8 4H6V0H8C8.53043 0 9.03914 0.210714 9.41421 0.585786C9.78929 0.960859 10 1.46957 10 2C10 2.53043 9.78929 3.03914 9.41421 3.41421C9.03914 3.78929 8.53043 4 8 4Z" fill="#FF7262"/>
</svg>
