<svg width="24" height="24" viewBox="0 0 24 24" fill="none" xmlns="http://www.w3.org/2000/svg">
<circle cx="12" cy="12" r="12" fill="white"/>
<path d="M14 14C15.1046 14 16 13.1046 16 12C16 10.8954 15.1046 10 14 10C12.8954 10 12 10.8954 12 12C12 13.1046 12.8954 14 14 14Z" fill="#19BCFE"/>
<path fill-rule="evenodd" clip-rule="evenodd" d="M10 18C10.5304 18 11.0391 17.7893 11.4142 17.4142C11.7893 17.0391 12 16.5304 12 16V14H10C9.46957 14 8.96086 14.2107 8.58579 14.5858C8.21071 14.9609 8 15.4696 8 16C8 16.5304 8.21071 17.0391 8.58579 17.4142C8.96086 17.7893 9.46957 18 10 18Z" fill="#09CF83"/>
<path fill-rule="evenodd" clip-rule="evenodd" d="M10 14H12V10H10C9.46957 10 8.96086 10.2107 8.58579 10.5858C8.21071 10.9609 8 11.4696 8 12C8 12.5304 8.21071 13.0391 8.58579 13.4142C8.96086 13.7893 9.46957 14 10 14Z" fill="#A259FF"/>
<path fill-rule="evenodd" clip-rule="evenodd" d="M10 10H12V6H10C9.46957 6 8.96086 6.21071 8.58579 6.58579C8.21071 6.96086 8 7.46957 8 8C8 8.53043 8.21071 9.03914 8.58579 9.41421C8.96086 9.78929 9.46957 10 10 10Z" fill="#F24E1E"/>
<path fill-rule="evenodd" clip-rule="evenodd" d="M14 10H12V6H14C14.5304 6 15.0391 6.21071 15.4142 6.58579C15.7893 6.96086 16 7.46957 16 8C16 8.53043 15.7893 9.03914 15.4142 9.41421C15.0391 9.78929 14.5304 10 14 10Z" fill="#FF7262"/>
</svg>
