<svg width="366" height="263" viewBox="0 0 366 263" fill="none" xmlns="http://www.w3.org/2000/svg">
<path d="M65.4167 229.386L65.3246 196.078L52.8705 188.83C35.9228 178.967 3.03766 162.349 2.12522 163.187C1.71753 163.561 1.11325 178.425 0.782384 196.218L0.180821 228.569L19.1465 239.181C34.8268 247.954 63.2337 262.481 65.0369 262.649C65.2964 262.673 65.4673 247.704 65.4167 229.386V229.386Z" fill="#FED47B"/>
<path d="M122.054 239.718L139.954 230.413L140.366 194.704L140.777 158.995L134.614 161.861C126.525 165.623 80.1732 191.982 77.0123 194.617C75.0668 196.239 74.8525 203.505 75.9793 229.637L77.401 262.609L90.7773 255.817C98.1342 252.081 112.209 244.836 122.054 239.718V239.718Z" fill="#FFC548"/>
<path d="M338.476 201.51L365.325 186.972L365.233 153.717L365.141 120.462L357.131 124.164C352.726 126.2 338.765 133.429 326.106 140.227L303.089 152.588L303.119 186.801L303.15 221.015L307.388 218.532C309.72 217.166 323.709 209.506 338.476 201.51L338.476 201.51Z" fill="#FED47B"/>
<path d="M145.995 144.789L219.76 105.272L257.951 124.932C302.432 147.831 292.642 147.886 333.542 124.504L359.444 109.696L330.63 94.8308C204.998 30.0158 156.727 5.40617 150.926 3.21422L144.187 0.667684L121.974 12.9789C109.757 19.7501 96.4978 27.484 92.5093 30.1655C85.8422 34.6477 85.5394 35.1977 88.7542 36.9868C90.6775 38.0571 105.788 46.0095 122.333 54.6587C138.878 63.308 152.486 71.0512 152.572 71.8658C152.658 72.6805 120.202 91.302 80.4478 113.247C32.0915 139.94 9.02012 153.584 10.7445 154.468C12.1622 155.194 26.0773 162.397 41.667 170.474C57.2567 178.551 70.511 184.967 71.1211 184.733C71.7312 184.498 105.425 166.524 145.995 144.789V144.789Z" fill="#FED47B" fill-opacity="0.75"/>
<path d="M109.882 86.0333C123.638 78.6083 134.66 72.3612 134.374 72.151C133.061 71.1846 77.8637 42.1979 77.3398 42.1995C75.4664 42.2053 74.6064 63.2845 75.7048 82.2719C76.9662 104.076 77.0076 104.232 80.9234 101.892C83.0944 100.595 96.1257 93.4584 109.882 86.0333Z" fill="#FED47B"/>
</svg>
