<svg width="14" height="14" viewBox="0 0 14 14" fill="none" xmlns="http://www.w3.org/2000/svg">
<path d="M7.00006 0C3.13452 0 0 3.20919 0 7.16806C0 10.3351 2.00572 13.022 4.78707 13.9698C5.13691 14.0362 5.26537 13.8143 5.26537 13.625C5.26537 13.4541 5.2588 12.8894 5.25585 12.2905C3.30843 12.724 2.89751 11.4447 2.89751 11.4447C2.57906 10.6162 2.12023 10.3958 2.12023 10.3958C1.48515 9.95098 2.16814 9.96016 2.16814 9.96016C2.87104 10.0107 3.24116 10.6988 3.24116 10.6988C3.86553 11.7946 4.87878 11.4778 5.27822 11.2946C5.34105 10.8314 5.52245 10.5151 5.72266 10.3361C4.16784 10.1549 2.5334 9.54027 2.5334 6.7937C2.5334 6.0111 2.80684 5.37163 3.25462 4.86965C3.18194 4.6891 2.94235 3.9601 3.32243 2.9727C3.32243 2.9727 3.91027 2.78006 5.24798 3.70748C5.80634 3.54866 6.40516 3.46903 7.00006 3.46629C7.59495 3.46903 8.19427 3.54861 8.75366 3.70748C10.0897 2.78012 10.6767 2.97276 10.6767 2.97276C11.0578 3.96004 10.8181 4.68916 10.7454 4.86965C11.1942 5.37163 11.4658 6.0111 11.4658 6.7937C11.4658 9.54682 9.82822 10.153 8.26946 10.3305C8.52053 10.5529 8.74426 10.9892 8.74426 11.6579C8.74426 12.617 8.73616 13.3889 8.73616 13.625C8.73616 13.8158 8.86216 14.0393 9.21698 13.9688C11.9968 13.02 14 10.3341 14 7.16811C14 3.20919 10.8659 0 7.00006 0ZM2.62177 10.211C2.60635 10.2467 2.55161 10.2574 2.50179 10.2329C2.45098 10.2095 2.42249 10.161 2.4389 10.1252C2.45399 10.0886 2.50884 10.0783 2.55948 10.1029C2.61034 10.1263 2.63933 10.1753 2.62177 10.211ZM2.96609 10.5256C2.93273 10.5573 2.86743 10.5426 2.82313 10.4926C2.77736 10.4426 2.76877 10.3757 2.80263 10.3436C2.83708 10.3119 2.90035 10.3267 2.94623 10.3767C2.99206 10.4273 3.00092 10.4936 2.96609 10.5256ZM3.20234 10.9282C3.15941 10.9587 3.0893 10.9301 3.04593 10.8664C3.00305 10.8026 3.00305 10.7262 3.04686 10.6956C3.09034 10.6649 3.15941 10.6925 3.20332 10.7558C3.24609 10.8205 3.24609 10.897 3.20228 10.9282L3.20234 10.9282ZM3.60177 11.3944C3.56344 11.4377 3.48168 11.4261 3.42185 11.3669C3.36066 11.3091 3.34365 11.2272 3.38215 11.1838C3.42098 11.1404 3.50317 11.1526 3.56344 11.2113C3.62414 11.2689 3.64273 11.3515 3.60177 11.3944ZM4.11813 11.5517C4.10118 11.6079 4.02243 11.6334 3.94319 11.6096C3.864 11.585 3.81221 11.5193 3.82818 11.4625C3.84464 11.406 3.92372 11.3794 4.00356 11.405C4.08264 11.4294 4.13459 11.4947 4.11813 11.5518V11.5517ZM4.7057 11.6185C4.70766 11.6776 4.64045 11.7266 4.55722 11.7277C4.47355 11.7296 4.40579 11.6818 4.40486 11.6236C4.40486 11.5639 4.47059 11.5154 4.55432 11.5139C4.63755 11.5123 4.7057 11.5597 4.7057 11.6185V11.6185ZM5.28292 11.5959C5.29287 11.6535 5.23507 11.7128 5.15238 11.7286C5.07117 11.7438 4.99592 11.7081 4.98559 11.651C4.97552 11.5918 5.03442 11.5326 5.11552 11.5173C5.19832 11.5026 5.27237 11.5372 5.28292 11.5959Z" fill="#161614"/>
</svg>
