<svg width="24" height="24" viewBox="0 0 24 24" fill="none" xmlns="http://www.w3.org/2000/svg">
<circle cx="12" cy="12" r="12" fill="white"/>
<path d="M12.0001 4C7.58231 4 4 7.66765 4 12.1921C4 15.8115 6.29225 18.8823 9.47094 19.9655C9.87075 20.0413 10.0176 19.7878 10.0176 19.5714C10.0176 19.3761 10.0101 18.7308 10.0067 18.0463C7.78106 18.5418 7.31144 17.0797 7.31144 17.0797C6.9475 16.1328 6.42313 15.881 6.42313 15.881C5.69731 15.3725 6.47787 15.383 6.47787 15.383C7.28119 15.4408 7.70419 16.2272 7.70419 16.2272C8.41775 17.4796 9.57575 17.1175 10.0322 16.9082C10.1041 16.3788 10.3114 16.0173 10.5402 15.8127C8.76325 15.6056 6.89531 14.9032 6.89531 11.7642C6.89531 10.8698 7.20781 10.139 7.71956 9.56531C7.6365 9.35898 7.36269 8.52582 7.79706 7.39738C7.79706 7.39738 8.46887 7.17722 9.99769 8.23712C10.6358 8.05562 11.3202 7.96461 12.0001 7.96147C12.6799 7.96461 13.3649 8.05555 14.0042 8.23712C15.5311 7.17728 16.202 7.39744 16.202 7.39744C16.6374 8.52576 16.3635 9.35904 16.2804 9.56531C16.7934 10.139 17.1038 10.8698 17.1038 11.7642C17.1038 14.9107 15.2323 15.6035 13.4508 15.8063C13.7378 16.0605 13.9934 16.559 13.9934 17.3233C13.9934 18.4194 13.9842 19.3016 13.9842 19.5714C13.9842 19.7894 14.1282 20.0449 14.5337 19.9644C17.7106 18.88 20 15.8104 20 12.1921C20 7.66765 16.4182 4 12.0001 4ZM6.99631 15.6698C6.97869 15.7105 6.91613 15.7227 6.85919 15.6947C6.80113 15.668 6.76856 15.6125 6.78731 15.5717C6.80456 15.5298 6.86725 15.5181 6.92512 15.5462C6.98325 15.5729 7.01638 15.6289 6.99631 15.6698ZM7.38981 16.0293C7.35169 16.0655 7.27706 16.0487 7.22644 15.9915C7.17412 15.9344 7.16431 15.858 7.203 15.8212C7.24238 15.785 7.31469 15.802 7.36713 15.8591C7.4195 15.9169 7.42963 15.9927 7.38981 16.0293ZM7.65981 16.4893C7.61075 16.5242 7.53062 16.4915 7.48106 16.4187C7.43206 16.3459 7.43206 16.2585 7.48213 16.2235C7.53181 16.1885 7.61075 16.22 7.66094 16.2923C7.70981 16.3663 7.70981 16.4537 7.65975 16.4894L7.65981 16.4893ZM8.11631 17.0221C8.0725 17.0717 7.97906 17.0584 7.91069 16.9908C7.84075 16.9247 7.82131 16.831 7.86531 16.7815C7.90969 16.7318 8.00363 16.7458 8.0725 16.8129C8.14188 16.8788 8.16313 16.9732 8.11631 17.0221ZM8.70644 17.202C8.68706 17.2662 8.59706 17.2954 8.5065 17.2681C8.416 17.24 8.35681 17.1649 8.37506 17.1C8.39388 17.0354 8.48425 17.0051 8.5755 17.0342C8.66587 17.0621 8.72525 17.1368 8.70644 17.202V17.202ZM9.37794 17.2783C9.38019 17.3459 9.30338 17.4019 9.20825 17.4031C9.11263 17.4053 9.03519 17.3507 9.03412 17.2841C9.03412 17.2159 9.10925 17.1604 9.20494 17.1588C9.30006 17.1569 9.37794 17.2111 9.37794 17.2783ZM10.0376 17.2524C10.049 17.3183 9.98294 17.386 9.88844 17.4041C9.79562 17.4214 9.70963 17.3807 9.69781 17.3154C9.68631 17.2478 9.75362 17.1801 9.84631 17.1626C9.94094 17.1458 10.0256 17.1854 10.0376 17.2524Z" fill="#161614"/>
</svg>
