<svg width="24" height="24" viewBox="0 0 24 24" fill="none" xmlns="http://www.w3.org/2000/svg">
<circle cx="12" cy="12" r="12" fill="white"/>
<g clip-path="url(#clip0_21_176)">
<path d="M8.95455 18.936V12.2737L7.39684 10.3834L6 9.33447V17.7603C6 18.4108 6.39736 18.936 6.88639 18.936H8.95455V18.936Z" fill="#4285F4"/>
<path d="M16.0454 18.936H18.1136C18.6041 18.936 19 18.4089 19 17.7603V9.33453L17.4179 10.536L16.0454 12.2737V18.936V18.936Z" fill="#34A853"/>
<path d="M8.95456 12.2737L8.7426 9.67051L8.95456 7.17903L12.5 10.7061L16.0455 7.17903L16.2826 9.536L16.0455 12.2737L12.5 15.8008L8.95456 12.2737Z" fill="#EA4335"/>
<path d="M16.0454 7.17931V12.274L19 9.33476V7.76714C19 6.31323 17.7488 5.4844 16.8728 6.35634L16.0454 7.17931Z" fill="#FBBC04"/>
<path d="M6 9.33433L7.35886 10.6862L8.95455 12.2735V7.17889L8.12723 6.35591C7.24973 5.4839 6 6.3128 6 7.76665V9.33426V9.33433Z" fill="#C5221F"/>
</g>
<defs>
<clipPath id="clip0_21_176">
<rect width="13" height="13" fill="white" transform="translate(6 6)"/>
</clipPath>
</defs>
</svg>
