<svg width="13" height="13" viewBox="0 0 13 13" fill="none" xmlns="http://www.w3.org/2000/svg">
<g clip-path="url(#clip0_21_176)">
<path d="M2.95455 12.936V6.27368L1.39684 4.38343L0 3.33447V11.7603C0 12.4108 0.397363 12.936 0.886387 12.936H2.95455Z" fill="#4285F4"/>
<path d="M10.0454 12.936H12.1136C12.6041 12.936 13 12.4089 13 11.7603V3.33453L11.4179 4.53599L10.0454 6.27368V12.936Z" fill="#34A853"/>
<path d="M2.95456 6.27368L2.7426 3.67051L2.95456 1.17903L6.50001 4.70614L10.0455 1.17903L10.2826 3.536L10.0455 6.27368L6.50001 9.80079L2.95456 6.27368Z" fill="#EA4335"/>
<path d="M10.0454 1.17931V6.27397L13 3.33476V1.76714C13 0.313232 11.7487 -0.515603 10.8728 0.35634L10.0454 1.17931Z" fill="#FBBC04"/>
<path d="M0 3.33433L1.35886 4.68619L2.95455 6.27354V1.17889L2.12723 0.355913C1.24973 -0.516098 0 0.312804 0 1.76665V3.33426V3.33433Z" fill="#C5221F"/>
</g>
<defs>
<clipPath id="clip0_21_176">
<rect width="13" height="13" fill="white"/>
</clipPath>
</defs>
</svg>
