<svg width="24" height="24" viewBox="0 0 24 24" fill="none" xmlns="http://www.w3.org/2000/svg">
<circle cx="12" cy="12" r="12" fill="white"/>
<path d="M8.21325 16.2004L7.37062 6.75H16.6294L15.7856 16.1989L11.9944 17.25L8.21325 16.2004Z" fill="#E44F26"/>
<path d="M12 16.4467L15.0638 15.5974L15.7845 7.52287H12V16.4467Z" fill="#F1662A"/>
<path d="M12 11.0276H10.4662L10.3605 9.84075H12V8.68163H9.09375L9.1215 8.99288L9.40613 12.1867H12V11.0276Z" fill="#EBEBEB"/>
<path d="M12 14.0378L11.9947 14.0393L10.704 13.6909L10.6215 12.7665H9.45787L9.62025 14.586L11.9947 15.2453L12 15.2438V14.0378Z" fill="#EBEBEB"/>
<path d="M11.9959 11.0276V12.1868H13.4231L13.2889 13.6901L11.9959 14.0389V15.2449L14.3722 14.586L14.3895 14.3903L14.6617 11.3389L14.6902 11.0276H11.9959Z" fill="white"/>
<path d="M11.9959 8.68163V9.84075H14.7956L14.8189 9.5805L14.8717 8.99288L14.8995 8.68163H11.9959Z" fill="white"/>
</svg>
