<svg width="12" height="12" viewBox="0 0 12 12" fill="none" xmlns="http://www.w3.org/2000/svg">
<path d="M2.21323 10.2004L1.37061 0.75H10.6294L9.7856 10.1989L5.99436 11.25L2.21323 10.2004Z" fill="#E44F26"/>
<path d="M6 10.4467L9.06375 9.59737L9.7845 1.52287H6V10.4467Z" fill="#F1662A"/>
<path d="M6 5.02762H4.46625L4.3605 3.84075H6V2.68163H3.09375L3.1215 2.99288L3.40613 6.18675H6V5.02762Z" fill="#EBEBEB"/>
<path d="M6.00001 8.03775L5.99476 8.03925L4.70401 7.69088L4.62151 6.7665H3.45789L3.62026 8.586L5.99476 9.24525L6.00001 9.24375V8.03775Z" fill="#EBEBEB"/>
<path d="M5.99588 5.02763V6.18675H7.42313L7.28888 7.69013L5.99588 8.03888V9.24488L8.37226 8.586L8.38951 8.39025L8.66176 5.33888L8.69026 5.02763H5.99588Z" fill="white"/>
<path d="M5.99588 2.68163V3.84075H8.79563L8.81888 3.5805L8.87176 2.99288L8.89951 2.68163H5.99588Z" fill="white"/>
</svg>
