<svg width="12" height="12" viewBox="0 0 12 12" fill="none" xmlns="http://www.w3.org/2000/svg">
<path d="M0 0H12V12H0V0Z" fill="#F7DF1E"/>
<path d="M3.15523 10.0281L4.07351 9.47231C4.2507 9.78642 4.41186 10.0522 4.79844 10.0522C5.16898 10.0522 5.40266 9.90727 5.40266 9.34345V5.50917H6.53033V9.35939C6.53033 10.5274 5.84567 11.059 4.84677 11.059C3.94466 11.059 3.42101 10.5918 3.15519 10.028" fill="black"/>
<path d="M7.14286 9.90721L8.06104 9.3756C8.30278 9.77034 8.61694 10.0603 9.17269 10.0603C9.63998 10.0603 9.93792 9.82668 9.93792 9.50446C9.93792 9.11784 9.63183 8.98087 9.1163 8.7554L8.83444 8.63446C8.02083 8.2882 7.48115 7.8532 7.48115 6.93491C7.48115 6.0891 8.12555 5.44466 9.13247 5.44466C9.84937 5.44466 10.3649 5.69441 10.7354 6.34687L9.85734 6.91077C9.66398 6.56441 9.45464 6.42749 9.13242 6.42749C8.80214 6.42749 8.5927 6.63693 8.5927 6.91077C8.5927 7.24907 8.80214 7.38609 9.28542 7.59552L9.56733 7.71632C10.5259 8.12718 11.0656 8.54601 11.0656 9.48838C11.0656 10.5034 10.2682 11.0592 9.19683 11.0592C8.14969 11.0592 7.47305 10.5598 7.14281 9.90726" fill="black"/>
</svg>
