<svg width="24" height="24" viewBox="0 0 24 24" fill="none" xmlns="http://www.w3.org/2000/svg">
<circle cx="12" cy="12" r="12" fill="white"/>
<path d="M6 6H18V18H6V6Z" fill="#F7DF1E"/>
<path d="M9.15523 16.0281L10.0735 15.4723C10.2507 15.7864 10.4119 16.0522 10.7984 16.0522C11.169 16.0522 11.4027 15.9073 11.4027 15.3435V11.5092H12.5303V15.3594C12.5303 16.5274 11.8457 17.059 10.8468 17.059C9.94465 17.059 9.42101 16.5918 9.15518 16.028" fill="black"/>
<path d="M13.1429 15.9072L14.061 15.3756C14.3028 15.7703 14.6169 16.0603 15.1727 16.0603C15.64 16.0603 15.9379 15.8267 15.9379 15.5045C15.9379 15.1178 15.6318 14.9809 15.1163 14.7554L14.8344 14.6345C14.0208 14.2882 13.4812 13.8532 13.4812 12.9349C13.4812 12.0891 14.1255 11.4447 15.1325 11.4447C15.8494 11.4447 16.3649 11.6944 16.7354 12.3469L15.8573 12.9108C15.664 12.5644 15.4546 12.4275 15.1324 12.4275C14.8021 12.4275 14.5927 12.6369 14.5927 12.9108C14.5927 13.2491 14.8021 13.3861 15.2854 13.5955L15.5673 13.7163C16.5259 14.1272 17.0656 14.546 17.0656 15.4884C17.0656 16.5034 16.2682 17.0592 15.1968 17.0592C14.1497 17.0592 13.473 16.5598 13.1428 15.9073" fill="black"/>
</svg>
