<svg width="14" height="14" viewBox="0 0 14 14" fill="none" xmlns="http://www.w3.org/2000/svg">
<g clip-path="url(#clip0_21_47)">
<path d="M11.9277 11.9238H9.8533V8.67522C9.8533 7.90057 9.83947 6.90334 8.77443 6.90334C7.69402 6.90334 7.5287 7.74739 7.5287 8.61884V11.9236H5.4544V5.24318H7.44574V6.15614H7.47363C7.67292 5.81538 7.96089 5.53506 8.3069 5.34502C8.65289 5.15498 9.04396 5.06235 9.43844 5.07699C11.5409 5.07699 11.9285 6.45993 11.9285 8.25905L11.9277 11.9238ZM3.11378 4.33006C2.44894 4.33017 1.90988 3.79128 1.90978 3.12644C1.90967 2.4616 2.4485 1.92255 3.11334 1.92244C3.77817 1.92227 4.31723 2.46117 4.31734 3.126C4.3174 3.44527 4.19063 3.75149 3.96492 3.97729C3.73921 4.2031 3.43304 4.32999 3.11378 4.33006ZM4.15098 11.9239H2.07444V5.24318H4.15092V11.9238L4.15098 11.9239ZM12.9618 -0.00404698H1.03209C0.468266 -0.0103908 0.00588355 0.441275 -0.00100708 1.00511V12.9846C0.0056648 13.5487 0.467993 14.0008 1.03204 13.9949H12.9618C13.527 14.0019 13.9912 13.5498 13.999 12.9846V1.00418C13.991 0.439252 13.5268 -0.0123595 12.9618 -0.00497667" fill="#0A66C2"/>
</g>
<defs>
<clipPath id="clip0_21_47">
<rect width="14" height="14" fill="white"/>
</clipPath>
</defs>
</svg>
