<svg width="24" height="24" viewBox="0 0 24 24" fill="none" xmlns="http://www.w3.org/2000/svg">
<circle cx="12" cy="12" r="12" fill="white"/>
<g clip-path="url(#clip0_21_47)">
<path d="M16.9277 16.9238H14.8533V13.6752C14.8533 12.9006 14.8395 11.9033 13.7744 11.9033C12.694 11.9033 12.5287 12.7474 12.5287 13.6188V16.9236H10.4544V10.2432H12.4457V11.1561H12.4736C12.6729 10.8154 12.9609 10.5351 13.3069 10.345C13.6529 10.155 14.044 10.0624 14.4385 10.077C16.5409 10.077 16.9285 11.4599 16.9285 13.259L16.9277 16.9238ZM8.11378 9.33006C7.44895 9.33017 6.90989 8.79128 6.90978 8.12644C6.90967 7.4616 7.44851 6.92255 8.11335 6.92244C8.77818 6.92227 9.31724 7.46117 9.31735 8.126C9.3174 8.44527 9.19064 8.75149 8.96492 8.97729C8.73921 9.2031 8.43305 9.32999 8.11378 9.33006ZM9.15099 16.9239H7.07445V10.2432H9.15093V16.9238L9.15099 16.9239ZM17.9618 4.99595H6.0321C5.46827 4.98961 5.00589 5.44128 4.999 6.00511V17.9846C5.00567 18.5487 5.468 19.0008 6.03205 18.9949H17.9618C18.5271 19.0019 18.9912 18.5498 18.999 17.9846V6.00418C18.991 5.43925 18.5268 4.98764 17.9618 4.99502" fill="#0A66C2"/>
</g>
<defs>
<clipPath id="clip0_21_47">
<rect width="14" height="14" fill="white" transform="translate(5 5)"/>
</clipPath>
</defs>
</svg>
