<svg width="439" height="431" viewBox="0 0 439 431" fill="none" xmlns="http://www.w3.org/2000/svg">
<path fill-rule="evenodd" clip-rule="evenodd" d="M389.944 224.992C409.298 252.671 402.523 290.761 374.811 310.069C347.1 329.376 308.947 322.59 289.593 294.911L266.25 261.525C267.046 271.358 266.54 281.422 264.592 291.525C252.385 354.825 188.207 395.672 121.245 382.759C54.2836 369.847 9.89586 308.064 22.1024 244.764C34.3089 181.464 98.4874 140.617 165.449 153.53C177.222 155.8 188.298 159.581 198.49 164.615L171.951 126.658C152.597 98.9792 159.372 60.8889 187.084 41.5813C214.795 22.2738 252.948 29.0603 272.302 56.7395L389.944 224.992ZM370.261 240.037C381.666 256.348 377.673 278.794 361.343 290.172C345.014 301.55 322.53 297.55 311.125 281.239L191.397 110.004C179.992 93.6926 183.984 71.2464 200.314 59.8687C216.644 48.491 239.128 52.4902 250.532 68.8012L370.261 240.037ZM127.763 348.963C174.979 358.068 220.233 329.266 228.84 284.631C237.448 239.996 206.149 196.432 158.932 187.327C111.716 178.222 66.4616 207.024 57.8544 251.659C49.2472 296.293 80.5462 339.858 127.763 348.963Z" fill="white"/>
</svg>
