<svg width="14" height="14" viewBox="0 0 14 14" fill="none" xmlns="http://www.w3.org/2000/svg">
<path d="M6.54154 0.00376745C6.51144 0.0065041 6.41564 0.0160824 6.32942 0.022924C4.34096 0.202174 2.4784 1.27494 1.29873 2.92377C0.641838 3.84054 0.221701 4.88047 0.0629521 5.98197C0.00684262 6.36647 0 6.48004 0 7.00137C0 7.5227 0.00684262 7.63627 0.0629521 8.02077C0.443402 10.6493 2.31417 12.8578 4.85142 13.676C5.30577 13.8225 5.78475 13.9223 6.32942 13.9826C6.54154 14.0058 7.45846 14.0058 7.67058 13.9826C8.61075 13.8786 9.40723 13.6459 10.1928 13.245C10.3132 13.1835 10.3365 13.167 10.32 13.1534C10.3091 13.1451 9.79589 12.4569 9.18006 11.6249L8.06061 10.1129L6.65787 8.03719C5.88602 6.89601 5.25103 5.96281 5.24555 5.96281C5.24008 5.96145 5.2346 6.88369 5.23187 8.00982C5.22776 9.98158 5.22639 10.0609 5.20176 10.1075C5.16618 10.1745 5.13881 10.2019 5.08133 10.232C5.03754 10.2539 4.99922 10.258 4.79257 10.258H4.55582L4.49286 10.2183C4.45181 10.1923 4.4217 10.1581 4.40117 10.1184L4.37243 10.0568L4.37517 7.31335L4.37928 4.56849L4.4217 4.51513C4.4436 4.48639 4.49013 4.44945 4.52297 4.43166C4.57908 4.40429 4.60098 4.40156 4.83773 4.40156C5.11691 4.40156 5.16344 4.4125 5.23597 4.49187C5.2565 4.51376 6.01603 5.65768 6.92473 7.03558C7.83343 8.41348 9.07605 10.2949 9.68641 11.2185L10.7949 12.8975L10.851 12.8605C11.3478 12.5376 11.8733 12.0778 12.2893 11.5989C13.1748 10.5823 13.7455 9.34257 13.937 8.02077C13.9932 7.63627 14 7.5227 14 7.00137C14 6.48004 13.9932 6.36647 13.937 5.98197C13.5566 3.35342 11.6858 1.14495 9.14858 0.326692C8.70107 0.181649 8.22483 0.0817619 7.6911 0.0215556C7.55973 0.00787242 6.65513 -0.00717913 6.54154 0.00376745ZM9.40723 4.23736C9.47292 4.2702 9.5263 4.33314 9.54545 4.39882C9.5564 4.4344 9.55914 5.19518 9.5564 6.90969L9.5523 9.36994L9.11847 8.70493L8.68328 8.03993V6.25153C8.68328 5.0953 8.68876 4.44534 8.69697 4.41387C8.71887 4.33725 8.76676 4.27704 8.83245 4.24146C8.88856 4.21273 8.90909 4.20999 9.12395 4.20999C9.32649 4.20999 9.36207 4.21273 9.40723 4.23736Z" fill="black"/>
</svg>
