<svg width="24" height="24" viewBox="0 0 24 24" fill="none" xmlns="http://www.w3.org/2000/svg">
<circle cx="12" cy="12" r="12" fill="white"/>
<path d="M15.9997 9.64635C15.88 9.60018 15.7593 9.55741 15.6376 9.51808C15.6581 9.42423 15.6769 9.33152 15.6936 9.24044C15.9677 7.74479 15.7885 6.53985 15.1764 6.14313C14.5895 5.76281 13.6297 6.15938 12.6603 7.10757C12.5648 7.20119 12.4714 7.2975 12.3802 7.39642C12.3191 7.33064 12.257 7.26614 12.1938 7.20295C11.1779 6.18912 10.1596 5.76182 9.54813 6.15968C8.96177 6.54119 8.78814 7.67391 9.03494 9.09138C9.05949 9.23176 9.08721 9.37142 9.11808 9.51023C8.97394 9.55626 8.83485 9.60526 8.70174 9.65742C7.51065 10.1242 6.75 10.8556 6.75 11.6144C6.75 12.398 7.56659 13.184 8.80717 13.6605C8.90774 13.699 9.00916 13.7347 9.11131 13.7675C9.07814 13.917 9.04868 14.0675 9.02298 14.2188C8.7877 15.6117 8.97144 16.7176 9.55622 17.0967C10.1602 17.4882 11.1739 17.0859 12.161 16.116C12.241 16.0372 12.3193 15.9561 12.3957 15.8729C12.4945 15.98 12.5959 16.084 12.6998 16.1847C13.656 17.1095 14.6003 17.4829 15.1845 17.1028C15.7879 16.7101 15.9841 15.522 15.7294 14.0766C15.7094 13.9633 15.6869 13.8506 15.662 13.7386C15.7332 13.7149 15.803 13.6905 15.8712 13.6651C17.1609 13.1849 18 12.4084 18 11.6144C18 10.8529 17.2148 10.1165 15.9997 9.64635ZM15.72 13.1524C15.6585 13.1753 15.5954 13.1974 15.5311 13.2189C15.3887 12.7123 15.1966 12.1736 14.9614 11.617C15.1858 11.0737 15.3705 10.5418 15.5089 10.0385C15.624 10.076 15.7357 10.1154 15.8433 10.1571C16.8844 10.5599 17.5194 11.1554 17.5194 11.6144C17.5194 12.1031 16.8336 12.7377 15.72 13.1524ZM15.258 14.1815C15.3706 14.8206 15.3866 15.3985 15.312 15.8503C15.2451 16.2563 15.1103 16.5269 14.9437 16.6353C14.5892 16.866 13.831 16.5662 13.0133 15.7753C12.9166 15.6816 12.8223 15.5849 12.7304 15.4853C13.0475 15.0957 13.3643 14.6427 13.6735 14.1396C14.2173 14.0854 14.7311 13.9967 15.1971 13.8756C15.22 13.9797 15.2404 14.0817 15.258 14.1815ZM10.5854 16.5954C10.239 16.7329 9.96311 16.7369 9.79633 16.6288C9.44147 16.3988 9.29395 15.5107 9.49518 14.3196C9.5191 14.1788 9.54648 14.0388 9.57731 13.8998C10.0381 14.0144 10.5482 14.0968 11.0933 14.1465C11.4046 14.6388 11.7306 15.0912 12.0591 15.4875C11.9893 15.5634 11.9178 15.6374 11.8448 15.7093C11.4082 16.1382 10.9709 16.4424 10.5854 16.5954ZM8.96265 13.1494C8.41408 12.9387 7.96104 12.6648 7.65053 12.3659C7.37147 12.0974 7.23063 11.8307 7.23063 11.6144C7.23063 11.1539 7.84134 10.5666 8.85995 10.1675C8.98356 10.1191 9.11294 10.0734 9.24719 10.0305C9.38799 10.5452 9.57265 11.0833 9.7955 11.6275C9.56975 12.1797 9.38246 12.7264 9.24029 13.2472C9.14705 13.2172 9.05447 13.1846 8.96265 13.1494ZM9.5066 8.9876C9.29518 7.77319 9.43559 6.8571 9.78895 6.62718C10.1653 6.38229 10.9975 6.73145 11.8747 7.60688C11.9319 7.6641 11.9882 7.72247 12.0435 7.78198C11.7167 8.17648 11.3937 8.6256 11.0852 9.11499C10.5561 9.17011 10.0496 9.25862 9.58395 9.37721C9.55526 9.24811 9.52947 9.11821 9.5066 8.98765V8.9876ZM14.3594 10.3344C14.2494 10.1209 14.1353 9.91007 14.0172 9.70207C14.3762 9.75309 14.7201 9.82081 15.0431 9.90359C14.9461 10.2529 14.8253 10.6181 14.683 10.9924C14.579 10.7707 14.4711 10.5513 14.3594 10.3344ZM12.3804 8.16803C12.6021 8.43796 12.8241 8.73931 13.0424 9.06629C12.5995 9.04277 12.1558 9.04267 11.7128 9.06599C11.9314 8.74202 12.1553 8.44107 12.3804 8.16803ZM10.3888 10.3381C10.2784 10.5533 10.1725 10.7713 10.0712 10.992C9.93125 10.6189 9.81149 10.2521 9.71372 9.89786C10.0347 9.81715 10.377 9.75116 10.7336 9.70108C10.6143 9.91035 10.4993 10.1228 10.3888 10.3381V10.3381ZM10.7439 13.5661C10.3754 13.5198 10.028 13.4572 9.70708 13.3787C9.8064 13.0181 9.92878 12.6435 10.0717 12.2624C10.1735 12.4833 10.2798 12.7014 10.3906 12.9167C10.5046 13.138 10.6227 13.3547 10.7439 13.5661ZM12.3937 15.0987C12.1659 14.8225 11.9387 14.5169 11.7168 14.1883C11.9322 14.1977 12.1518 14.2026 12.375 14.2026C12.6043 14.2026 12.831 14.1968 13.0541 14.1856C12.835 14.5202 12.6138 14.8263 12.3937 15.0987ZM14.6875 12.243C14.8379 12.6282 14.9647 13.0009 15.0653 13.3553C14.7391 13.439 14.3869 13.5063 14.0159 13.5564C14.1348 13.3445 14.2499 13.13 14.3612 12.913C14.4744 12.6924 14.5832 12.469 14.6875 12.243ZM13.9449 12.6431C13.7745 12.9758 13.5945 13.3022 13.4053 13.6218C13.0624 13.6491 12.7187 13.6627 12.375 13.6625C12.0249 13.6625 11.6844 13.6502 11.3564 13.6263C11.1622 13.3075 10.9788 12.9805 10.8065 12.6461H10.8066C10.6352 12.3134 10.475 11.9736 10.3266 11.6272C10.4747 11.2808 10.6343 10.9408 10.8051 10.6079L10.8051 10.608C10.9759 10.275 11.1578 9.9494 11.3506 9.63193C11.6851 9.60348 12.0282 9.58866 12.375 9.58866H12.375C12.7233 9.58866 13.0668 9.60363 13.4013 9.63228C13.5921 9.94927 13.7729 10.2737 13.9434 10.6051C14.1148 10.9372 14.2765 11.2756 14.4283 11.6196C14.2781 11.9671 14.1168 12.3085 13.9449 12.6431ZM14.9364 6.61108C15.3131 6.85527 15.4596 7.84001 15.2229 9.13138C15.2078 9.21377 15.1908 9.29769 15.1723 9.38279C14.7056 9.26168 14.1987 9.17164 13.6681 9.11568C13.359 8.62091 13.0387 8.17109 12.7171 7.78168C12.8014 7.69038 12.8877 7.60145 12.9759 7.51496C13.8064 6.7026 14.5827 6.38185 14.9364 6.61108ZM12.375 10.4852C12.9298 10.4852 13.3796 10.9908 13.3796 11.6144C13.3796 12.2379 12.9298 12.7435 12.375 12.7435C11.8202 12.7435 11.3704 12.2379 11.3704 11.6144C11.3704 10.9908 11.8202 10.4852 12.375 10.4852Z" fill="#00D8FF"/>
</svg>
