<svg width="12" height="12" viewBox="0 0 12 12" fill="none" xmlns="http://www.w3.org/2000/svg">
<path d="M9.24974 3.64635C9.13002 3.60018 9.00927 3.55741 8.88763 3.51808C8.90807 3.42423 8.92688 3.33152 8.94357 3.24044C9.21771 1.74479 9.0385 0.539853 8.42638 0.143131C7.83949 -0.237192 6.87968 0.159381 5.91034 1.10757C5.8148 1.20119 5.72139 1.2975 5.63019 1.39642C5.56913 1.33064 5.50699 1.26614 5.44381 1.20295C4.42789 0.189116 3.40958 -0.23818 2.79813 0.159678C2.21177 0.541186 2.03814 1.67391 2.28494 3.09138C2.30949 3.23176 2.33721 3.37142 2.36808 3.51023C2.22394 3.55626 2.08485 3.60526 1.95174 3.65742C0.760649 4.12418 0 4.85563 0 5.61435C0 6.39797 0.816592 7.18395 2.05717 7.66054C2.15774 7.69902 2.25916 7.73467 2.36131 7.76747C2.32814 7.91697 2.29868 8.06748 2.27298 8.21882C2.0377 9.6117 2.22144 10.7176 2.80622 11.0967C3.4102 11.4882 4.42393 11.0859 5.41099 10.116C5.49103 10.0372 5.5693 9.95612 5.64574 9.87288C5.74451 9.98 5.84592 10.084 5.94984 10.1847C6.90601 11.1095 7.8503 11.4829 8.43451 11.1028C9.03792 10.7101 9.23405 9.52205 8.97943 8.07657C8.95938 7.96333 8.93688 7.85065 8.91198 7.73863C8.98317 7.71492 9.05304 7.69052 9.12116 7.66513C10.4109 7.18489 11.25 6.40844 11.25 5.61435C11.25 4.85287 10.4648 4.11647 9.24974 3.64635ZM8.97003 7.15244C8.90851 7.17531 8.8454 7.19739 8.78106 7.21887C8.63868 6.71225 8.44655 6.17357 8.2114 5.61697C8.43579 5.07365 8.62053 4.54184 8.75892 4.03853C8.87401 4.07597 8.98567 4.11543 9.09334 4.15707C10.1344 4.55992 10.7694 5.15544 10.7694 5.61435C10.7694 6.10314 10.0836 6.73769 8.97003 7.15244ZM8.50799 8.18148C8.62058 8.82062 8.63662 9.39852 8.56204 9.85031C8.49507 10.2563 8.36033 10.5269 8.19369 10.6353C7.83918 10.866 7.081 10.5662 6.26331 9.77528C6.16664 9.6816 6.07231 9.58492 5.98043 9.48535C6.29745 9.09569 6.61425 8.64271 6.92345 8.1396C7.46732 8.08537 7.98113 7.99666 8.44708 7.8756C8.47002 7.97967 8.49041 8.08171 8.50799 8.18148ZM3.83537 10.5954C3.48899 10.7329 3.21311 10.7369 3.04633 10.6288C2.69147 10.3988 2.54395 9.51074 2.74518 8.31959C2.7691 8.17883 2.79648 8.03885 2.82731 7.8998C3.28812 8.01439 3.79819 8.09678 4.34334 8.14646C4.65464 8.63876 4.98059 9.09125 5.30908 9.48747C5.23927 9.5634 5.16781 9.63738 5.09476 9.70935C4.65825 10.1382 4.22086 10.4424 3.83537 10.5954ZM2.21265 7.14942C1.66408 6.93867 1.21104 6.66478 0.900527 6.36591C0.621475 6.09736 0.48063 5.83069 0.48063 5.61435C0.48063 5.15391 1.09134 4.56664 2.10995 4.16749C2.23356 4.11909 2.36294 4.0734 2.49719 4.03053C2.63799 4.5452 2.82265 5.08333 3.0455 5.62749C2.81975 6.1797 2.63246 6.72643 2.49029 7.24717C2.39705 7.21715 2.30447 7.18456 2.21265 7.14942ZM2.7566 2.9876C2.54518 1.77319 2.68559 0.857102 3.03895 0.627179C3.4153 0.38229 4.24753 0.731447 5.12473 1.60688C5.18193 1.6641 5.2382 1.72247 5.29352 1.78198C4.96666 2.17648 4.6437 2.6256 4.33516 3.11499C3.80606 3.17011 3.29959 3.25862 2.83395 3.37721C2.80526 3.24811 2.77947 3.11821 2.7566 2.98765V2.9876ZM7.60935 4.33444C7.49937 4.12091 7.3853 3.91007 7.26724 3.70207C7.62618 3.75309 7.9701 3.82081 8.29305 3.90359C8.19611 4.25289 8.07526 4.61805 7.93301 4.99245C7.82903 4.77071 7.72112 4.55133 7.60935 4.33444ZM5.63041 2.16803C5.85207 2.43796 6.07408 2.73931 6.29244 3.06629C5.84947 3.04277 5.40577 3.04267 4.96279 3.06599C5.18137 2.74202 5.40527 2.44107 5.63041 2.16803ZM3.63876 4.33815C3.52838 4.55329 3.42249 4.7713 3.32117 4.992C3.18125 4.61894 3.06149 4.2521 2.96372 3.89786C3.28469 3.81715 3.62698 3.75116 3.98364 3.70108C3.86426 3.91035 3.74927 4.12275 3.63876 4.3381V4.33815ZM3.99388 7.56605C3.6254 7.51982 3.27797 7.45724 2.95708 7.37871C3.0564 7.01814 3.17878 6.6435 3.32174 6.26243C3.42346 6.4833 3.5298 6.70144 3.64065 6.91669C3.75464 7.13797 3.87268 7.3547 3.99388 7.56605ZM5.64368 9.09871C5.41586 8.8225 5.18867 8.51691 4.96679 8.18825C5.18221 8.19773 5.4018 8.20257 5.625 8.20257C5.85431 8.20257 6.08098 8.1968 6.30409 8.18563C6.08502 8.52022 5.86384 8.82625 5.64368 9.09871ZM7.93753 6.24297C8.08792 6.62823 8.21465 7.0009 8.31529 7.35529C7.98913 7.43896 7.63695 7.50634 7.26587 7.55637C7.38478 7.3445 7.49993 7.13 7.61124 6.91298C7.72441 6.69239 7.83321 6.469 7.93753 6.24297ZM7.19495 6.6431C7.02454 6.97583 6.84454 7.30224 6.65525 7.62182C6.31237 7.64911 5.96874 7.66267 5.625 7.66247C5.27489 7.66247 4.93436 7.65022 4.60644 7.62631C4.41221 7.30747 4.22878 6.98049 4.05655 6.64606H4.05659C3.88517 6.31341 3.72505 5.97356 3.57658 5.62724C3.72467 5.28085 3.88431 4.94083 4.05514 4.60793L4.0551 4.60798C4.22587 4.27498 4.40783 3.9494 4.60059 3.63193C4.93515 3.60348 5.27823 3.58866 5.62496 3.58866H5.625C5.97331 3.58866 6.31683 3.60363 6.6513 3.63228C6.84211 3.94927 7.02291 4.27373 7.19336 4.60506C7.36477 4.93724 7.52652 5.27559 7.67835 5.61959C7.52807 5.9671 7.36684 6.30849 7.19495 6.6431ZM8.18635 0.611077C8.56305 0.855274 8.70957 1.84001 8.47288 3.13138C8.45776 3.21377 8.4408 3.29769 8.42234 3.38279C7.95555 3.26168 7.44873 3.17164 6.91809 3.11568C6.60898 2.62091 6.28866 2.17109 5.96711 1.78168C6.05139 1.69038 6.13766 1.60145 6.22586 1.51496C7.05643 0.702601 7.83268 0.381846 8.18635 0.611077ZM5.625 4.48524C6.17981 4.48524 6.62959 4.99077 6.62959 5.61435C6.62959 6.23793 6.17981 6.74347 5.625 6.74347C5.07019 6.74347 4.62041 6.23793 4.62041 5.61435C4.62041 4.99077 5.07019 4.48524 5.625 4.48524Z" fill="#00D8FF"/>
</svg>
