<svg width="14" height="12" viewBox="0 0 14 12" fill="none" xmlns="http://www.w3.org/2000/svg">
<path d="M11.6246 6.89835C11.1536 6.90124 10.7443 7.03568 10.4015 7.23444C10.2757 6.93922 10.15 6.67622 10.1278 6.4833C10.1031 6.25829 10.0736 6.12089 10.1031 5.85201C10.1327 5.58312 10.2659 5.20021 10.2634 5.17101C10.261 5.1418 10.2338 5.00441 9.96258 5.00152C9.69135 4.99858 9.45709 5.06289 9.42997 5.14763C9.40284 5.23237 9.35107 5.42529 9.31654 5.62398C9.26969 5.91631 8.77409 6.95965 8.49055 7.50621C8.39927 7.29291 8.32038 7.10582 8.30309 6.95677C8.27844 6.73176 8.24883 6.59437 8.27844 6.32548C8.30806 6.05659 8.44121 5.67375 8.43872 5.64448C8.43624 5.61527 8.40911 5.47788 8.13789 5.475C7.86661 5.47205 7.63235 5.53636 7.60528 5.6211C7.57815 5.7059 7.54854 5.90459 7.49185 6.09752C7.43511 6.29044 6.77675 8.03239 6.60415 8.48242C6.53439 8.66457 6.46122 8.84486 6.38469 9.02314C6.38469 9.02314 6.38221 9.03192 6.3748 9.04652C6.35076 9.10243 6.32611 9.15796 6.30088 9.21312V9.21601C6.26386 9.29498 6.22441 9.368 6.20469 9.368C6.18988 9.368 6.16275 9.15759 6.2096 8.87115C6.30823 8.26618 6.54249 7.32507 6.54005 7.29291C6.54005 7.27536 6.58442 7.11171 6.38718 7.02691C6.1948 6.94217 6.12579 7.08244 6.1085 7.08244C6.09126 7.08244 6.07888 7.13214 6.07888 7.13214C6.07888 7.13214 6.29347 6.07414 5.66959 6.07414C5.28002 6.07414 4.74244 6.57976 4.47613 7.03568C4.1734 7.23095 3.87092 7.42678 3.5687 7.62317C3.42328 7.71963 3.27284 7.81609 3.13228 7.90666C3.12239 7.895 3.11256 7.88033 3.10267 7.86868C2.34812 6.91296 0.9525 6.23779 1.01167 4.95477C1.03388 4.48712 1.16947 3.25957 3.69202 1.76902C5.76821 0.556075 7.42035 0.892155 7.70638 1.63746C8.11568 2.70136 6.82117 4.6771 4.67586 4.96348C3.85722 5.07166 3.42815 4.69754 3.31969 4.55726C3.20626 4.4111 3.18897 4.40232 3.14704 4.43159C3.07803 4.47547 3.12239 4.60697 3.14704 4.68293C3.21118 4.88162 3.475 5.23237 3.92131 5.40486C4.31585 5.55679 5.27505 5.64159 6.43646 5.10964C7.73594 4.51339 8.75188 2.85624 8.45353 1.46798C8.15513 0.0592248 6.18248 -0.405471 4.31585 0.380701C3.20626 0.848406 2.00292 1.58487 1.13742 2.54354C0.109164 3.68334 -0.053602 4.67416 0.0129744 5.08921C0.252205 6.56221 1.96595 7.52087 2.65144 8.23108C2.61691 8.25446 2.58481 8.27496 2.55774 8.29251C2.21497 8.49414 0.908081 9.30369 0.582602 10.1601C0.212757 11.1304 0.641828 11.826 0.925373 11.9195C1.80567 12.2089 2.71061 11.6887 3.19637 10.8293C3.68213 9.97009 3.62296 8.8536 3.39859 8.34215C3.3961 8.33632 3.39367 8.33043 3.3887 8.3246C3.47749 8.26323 3.5687 8.19893 3.65749 8.13756C3.82067 8.02323 3.98593 7.9131 4.15314 7.80725C4.06927 8.07909 4.00761 8.40351 3.97805 8.87115C3.94104 9.42065 4.13088 10.1337 4.37994 10.4143C4.49094 10.5371 4.62161 10.54 4.70547 10.54C4.99642 10.54 5.12714 10.2536 5.27262 9.91455C5.45014 9.49956 5.61042 9.01732 5.61042 9.01732C5.61042 9.01732 5.41069 10.3208 5.95319 10.3208C6.15043 10.3208 6.35016 10.0168 6.43895 9.86197V9.86485C6.43895 9.86485 6.44386 9.85607 6.45375 9.83564C6.47348 9.79766 6.4858 9.77422 6.4858 9.77422V9.76845C6.5647 9.60474 6.74227 9.23356 7.00609 8.61687C7.34637 7.82192 7.67434 6.82822 7.67434 6.82822C7.67434 6.82822 7.70395 7.07078 7.80501 7.47412C7.86423 7.71085 7.98744 7.97097 8.08612 8.22231C8.00722 8.35387 7.95788 8.42689 7.95788 8.42689L7.96037 8.42983C7.89622 8.52918 7.82721 8.6373 7.75075 8.7426C7.48196 9.12249 7.16145 9.55804 7.11703 9.68365C7.06521 9.8327 7.07758 9.94088 7.17626 10.0286C7.24775 10.0929 7.37593 10.1016 7.50665 10.0929C7.74832 10.0724 7.91843 10.0022 8.00225 9.95843C8.13297 9.90289 8.28585 9.81809 8.42884 9.69242C8.69271 9.46152 8.85294 9.13126 8.83818 8.69584C8.83078 8.45616 8.7642 8.21648 8.68282 7.9914C8.70751 7.95053 8.72967 7.9096 8.75437 7.86868C9.17106 7.14675 9.49411 6.35468 9.49411 6.35468C9.49411 6.35468 9.52372 6.59725 9.62478 7.00065C9.67412 7.20523 9.77522 7.42736 9.86396 7.6436C9.4719 8.02067 9.23024 8.45904 9.14394 8.74548C8.98863 9.27743 9.10941 9.51705 9.33875 9.57258C9.44229 9.59891 9.59025 9.54043 9.69876 9.48489C9.83683 9.43231 9.99959 9.34174 10.155 9.20723C10.4188 8.97639 10.6728 8.65485 10.658 8.21942C10.6506 8.02067 10.6062 7.8248 10.5445 7.63482C10.8774 7.47123 11.3065 7.3806 11.8538 7.45657C13.0276 7.62022 13.2594 8.48825 13.215 8.85366C13.1706 9.21895 12.924 9.4177 12.8427 9.47907C12.7613 9.54049 12.7342 9.56092 12.7416 9.60474C12.7514 9.66904 12.7909 9.66616 12.8599 9.65444C12.9561 9.63401 13.4764 9.35922 13.4986 8.687C13.5356 7.82775 12.8451 6.88958 11.6246 6.89835ZM2.57006 10.5166C2.18044 11.0193 1.63799 11.2093 1.40373 11.0486C1.15223 10.8761 1.25085 10.1337 1.72921 9.60185C2.02016 9.27743 2.39497 8.97632 2.64404 8.79224C2.70073 8.75131 2.78459 8.69289 2.8857 8.61981C2.90294 8.60809 2.91283 8.60226 2.91283 8.60226L2.972 8.55838C3.14704 9.3183 2.97941 9.98764 2.57006 10.5166ZM5.40577 8.23108C5.27013 8.62276 4.98659 9.62523 4.81398 9.5697C4.66603 9.52294 4.57475 8.76303 4.78437 8.0119C4.8904 7.63482 5.11477 7.18473 5.24549 7.00942C5.45754 6.72881 5.6918 6.63523 5.74849 6.74931C5.82003 6.89836 5.48958 7.98557 5.40577 8.23108ZM7.74583 9.55798C7.68909 9.59308 7.63489 9.61646 7.61019 9.59891C7.59296 9.58719 7.63489 9.54043 7.63489 9.54043C7.63489 9.54043 7.92832 9.16636 8.04418 8.99682C8.11081 8.89748 8.18966 8.78058 8.27353 8.64902V8.687C8.27353 9.13421 7.90855 9.43525 7.74578 9.55798H7.74583ZM9.5508 9.0699C9.50886 9.0348 9.51627 8.91791 9.65682 8.55256C9.71108 8.40934 9.83926 8.16972 10.0588 7.93881C10.0834 8.03233 10.1007 8.12296 10.0982 8.2077C10.0957 8.77181 9.7555 8.98222 9.5508 9.0699Z" fill="#CD6799"/>
</svg>
