<svg width="24" height="24" viewBox="0 0 24 24" fill="none" xmlns="http://www.w3.org/2000/svg">
<circle cx="12" cy="12" r="12" fill="white"/>
<path d="M16.8746 12.8984C16.4036 12.9012 15.9943 13.0357 15.6515 13.2344C15.5257 12.9392 15.4 12.6762 15.3778 12.4833C15.3531 12.2583 15.3236 12.1209 15.3531 11.852C15.3827 11.5831 15.5159 11.2002 15.5134 11.171C15.511 11.1418 15.4838 11.0044 15.2126 11.0015C14.9414 10.9986 14.7071 11.0629 14.68 11.1476C14.6528 11.2324 14.6011 11.4253 14.5665 11.624C14.5197 11.9163 14.0241 12.9597 13.7405 13.5062C13.6493 13.2929 13.5704 13.1058 13.5531 12.9568C13.5284 12.7318 13.4988 12.5944 13.5284 12.3255C13.5581 12.0566 13.6912 11.6737 13.6887 11.6445C13.6862 11.6153 13.6591 11.4779 13.3879 11.475C13.1166 11.4721 12.8824 11.5364 12.8553 11.6211C12.8281 11.7059 12.7985 11.9046 12.7418 12.0975C12.6851 12.2904 12.0267 14.0324 11.8541 14.4824C11.7844 14.6646 11.7112 14.8449 11.6347 15.0231C11.6347 15.0231 11.6322 15.0319 11.6248 15.0465C11.6008 15.1024 11.5761 15.158 11.5509 15.2131V15.216C11.5139 15.295 11.4744 15.368 11.4547 15.368C11.4399 15.368 11.4128 15.1576 11.4596 14.8712C11.5582 14.2662 11.7925 13.3251 11.7901 13.2929C11.7901 13.2754 11.8344 13.1117 11.6372 13.0269C11.4448 12.9422 11.3758 13.0824 11.3585 13.0824C11.3413 13.0824 11.3289 13.1321 11.3289 13.1321C11.3289 13.1321 11.5435 12.0741 10.9196 12.0741C10.53 12.0741 9.99244 12.5798 9.72613 13.0357C9.4234 13.231 9.12092 13.4268 8.8187 13.6232C8.67328 13.7196 8.52284 13.8161 8.38228 13.9067C8.37239 13.895 8.36256 13.8803 8.35267 13.8687C7.59812 12.913 6.2025 12.2378 6.26167 10.9548C6.28388 10.4871 6.41947 9.25957 8.94202 7.76902C11.0182 6.55607 12.6704 6.89216 12.9564 7.63746C13.3657 8.70136 12.0712 10.6771 9.92586 10.9635C9.10722 11.0717 8.67815 10.6975 8.56969 10.5573C8.45626 10.4111 8.43897 10.4023 8.39704 10.4316C8.32803 10.4755 8.37239 10.607 8.39704 10.6829C8.46118 10.8816 8.725 11.2324 9.17131 11.4049C9.56585 11.5568 10.525 11.6416 11.6865 11.1096C12.9859 10.5134 14.0019 8.85624 13.7035 7.46798C13.4051 6.05922 11.4325 5.59453 9.56585 6.3807C8.45626 6.84841 7.25292 7.58487 6.38742 8.54354C5.35916 9.68334 5.1964 10.6742 5.26297 11.0892C5.50221 12.5622 7.21595 13.5209 7.90144 14.2311C7.86691 14.2545 7.83481 14.275 7.80774 14.2925C7.46497 14.4941 6.15808 15.3037 5.8326 16.1601C5.46276 17.1304 5.89183 17.826 6.17537 17.9195C7.05567 18.2089 7.96061 17.6887 8.44637 16.8293C8.93213 15.9701 8.87296 14.8536 8.64859 14.3421C8.6461 14.3363 8.64367 14.3304 8.6387 14.3246C8.72749 14.2632 8.8187 14.1989 8.90749 14.1376C9.07067 14.0232 9.23593 13.9131 9.40314 13.8073C9.31927 14.0791 9.25761 14.4035 9.22805 14.8712C9.19104 15.4206 9.38088 16.1337 9.62994 16.4143C9.74094 16.5371 9.87161 16.54 9.95547 16.54C10.2464 16.54 10.3771 16.2536 10.5226 15.9146C10.7001 15.4996 10.8604 15.0173 10.8604 15.0173C10.8604 15.0173 10.6607 16.3208 11.2032 16.3208C11.4004 16.3208 11.6002 16.0168 11.6889 15.862V15.8649C11.6889 15.8649 11.6939 15.8561 11.7038 15.8356C11.7235 15.7977 11.7358 15.7742 11.7358 15.7742V15.7685C11.8147 15.6047 11.9923 15.2336 12.2561 14.6169C12.5964 13.8219 12.9243 12.8282 12.9243 12.8282C12.9243 12.8282 12.954 13.0708 13.055 13.4741C13.1142 13.7109 13.2374 13.971 13.3361 14.2223C13.2572 14.3539 13.2079 14.4269 13.2079 14.4269L13.2104 14.4298C13.1462 14.5292 13.0772 14.6373 13.0008 14.7426C12.732 15.1225 12.4115 15.558 12.367 15.6836C12.3152 15.8327 12.3276 15.9409 12.4263 16.0286C12.4978 16.0929 12.6259 16.1016 12.7567 16.0929C12.9983 16.0724 13.1684 16.0022 13.2522 15.9584C13.383 15.9029 13.5358 15.8181 13.6788 15.6924C13.9427 15.4615 14.1029 15.1313 14.0882 14.6958C14.0808 14.4562 14.0142 14.2165 13.9328 13.9914C13.9575 13.9505 13.9797 13.9096 14.0044 13.8687C14.4211 13.1467 14.7441 12.3547 14.7441 12.3547C14.7441 12.3547 14.7737 12.5972 14.8748 13.0006C14.9241 13.2052 15.0252 13.4274 15.114 13.6436C14.7219 14.0207 14.4802 14.459 14.3939 14.7455C14.2386 15.2774 14.3594 15.517 14.5887 15.5726C14.6923 15.5989 14.8402 15.5404 14.9488 15.4849C15.0868 15.4323 15.2496 15.3417 15.405 15.2072C15.6688 14.9764 15.9228 14.6548 15.908 14.2194C15.9006 14.0207 15.8562 13.8248 15.7945 13.6348C16.1274 13.4712 16.5565 13.3806 17.1038 13.4566C18.2776 13.6202 18.5094 14.4882 18.465 14.8537C18.4206 15.219 18.174 15.4177 18.0927 15.4791C18.0113 15.5405 17.9842 15.5609 17.9916 15.6047C18.0014 15.669 18.0409 15.6662 18.1099 15.6544C18.2061 15.634 18.7264 15.3592 18.7486 14.687C18.7856 13.8277 18.0951 12.8896 16.8746 12.8984ZM7.82006 16.5166C7.43044 17.0193 6.88799 17.2093 6.65373 17.0486C6.40223 16.8761 6.50085 16.1337 6.97921 15.6019C7.27016 15.2774 7.64497 14.9763 7.89404 14.7922C7.95073 14.7513 8.03459 14.6929 8.1357 14.6198C8.15294 14.6081 8.16283 14.6023 8.16283 14.6023L8.222 14.5584C8.39704 15.3183 8.22941 15.9876 7.82006 16.5166ZM10.6558 14.2311C10.5201 14.6228 10.2366 15.6252 10.064 15.5697C9.91603 15.5229 9.82475 14.763 10.0344 14.0119C10.1404 13.6348 10.3648 13.1847 10.4955 13.0094C10.7075 12.7288 10.9418 12.6352 10.9985 12.7493C11.07 12.8984 10.7396 13.9856 10.6558 14.2311ZM12.9958 15.558C12.9391 15.5931 12.8849 15.6165 12.8602 15.5989C12.843 15.5872 12.8849 15.5404 12.8849 15.5404C12.8849 15.5404 13.1783 15.1664 13.2942 14.9968C13.3608 14.8975 13.4397 14.7806 13.5235 14.649V14.687C13.5235 15.1342 13.1585 15.4353 12.9958 15.558H12.9958ZM14.8008 15.0699C14.7589 15.0348 14.7663 14.9179 14.9068 14.5526C14.9611 14.4093 15.0893 14.1697 15.3088 13.9388C15.3334 14.0323 15.3507 14.123 15.3482 14.2077C15.3457 14.7718 15.0055 14.9822 14.8008 15.0699Z" fill="#CD6799"/>
</svg>
