<svg width="307" height="302" viewBox="0 0 307 302" fill="none" xmlns="http://www.w3.org/2000/svg">
<path d="M96.4196 294.402C104.752 290.456 118.095 283.338 126.071 278.583L140.573 269.939L111.063 255.617C94.8321 247.74 80.3023 241.298 78.7744 241.303C76.4823 241.309 76.1377 246.58 76.8037 271.439C77.2485 288.042 78.4321 301.569 79.4403 301.572C80.4465 301.574 88.0872 298.348 96.4196 294.402Z" fill="#4D4D4D"/>
<path d="M66.4975 262.969C66.438 242.659 67.1151 225.652 68.0022 225.177C69.5678 224.338 97.6365 237.447 182.511 278.657C205.075 289.612 224.247 298.838 225.116 299.158C225.985 299.478 226.407 284.757 226.055 266.445L225.413 233.149L188.359 214.86C125.283 183.728 118.659 180.426 92.5455 167.111L67.1788 154.176L66.0631 114.724L64.9475 75.2707L47.9225 66.8435C38.5587 62.2085 24.2485 55.0519 16.122 50.9398C7.99546 46.8277 1.01047 43.4643 0.599755 43.4655C-0.670032 43.4692 0.869429 246.837 2.23417 259.379L3.52041 271.199L33.5378 285.552C50.0473 293.447 64.2415 299.904 65.0804 299.901C65.9194 299.899 66.557 283.279 66.4975 262.969Z" fill="#7851A9"/>
<path d="M280.133 279.348L304.481 267.337L304.447 242.364C304.428 228.628 304.877 214.676 305.446 211.359C307.55 199.072 305.166 199.46 271.116 216.942L239.414 233.218L238.967 266.474L238.521 299.73L247.153 295.544C251.901 293.242 266.742 285.953 280.133 279.348Z" fill="#4D4D4D"/>
<path d="M116.895 119.482L141.243 107.471L141.209 82.4979C141.191 68.7625 141.64 54.8105 142.208 51.4933C144.312 39.2064 141.929 39.5939 107.879 57.0759L76.1761 73.3528L75.7297 106.609L75.2833 139.864L83.9154 135.678C88.6631 133.376 103.504 126.088 116.895 119.482Z" fill="#4D4D4D"/>
<path d="M265.818 207.031C283.877 197.902 298.21 190.063 297.67 189.609C295.247 187.572 257.036 169.507 243.285 163.897L228.056 157.684L219.849 161.659C186.133 177.989 163.845 189.94 163.902 191.659C163.969 193.71 226.034 223.411 230.547 223.552C231.888 223.593 247.76 216.159 265.818 207.031Z" fill="#7851A9" fill-opacity="0.75"/>
<path d="M188.016 170.55C206.074 161.422 220.407 153.582 219.867 153.128C217.444 151.092 179.233 133.027 165.482 127.417L150.253 121.204L142.046 125.179C108.33 141.509 86.0425 153.46 86.0991 155.178C86.1664 157.23 148.231 186.931 152.745 187.071C154.085 187.113 169.957 179.678 188.016 170.55Z" fill="#7851A9" fill-opacity="0.75"/>
<path d="M109.791 49.0806C119.171 44.0251 129.822 37.9634 133.461 35.6102L140.077 31.3315L120.419 21.4405C109.607 16.0005 94.2883 8.99574 86.3767 5.87442L71.9919 0.1993L61.3758 5.71579C55.5369 8.74984 41.0276 16.484 29.1329 22.9027C7.90292 34.3591 7.59179 34.6196 12.1741 37.1011C14.7415 38.4914 29.3958 45.8131 44.7391 53.3715L72.6361 67.1141L82.6866 62.6932C88.2144 60.2617 100.411 54.136 109.791 49.0806Z" fill="#7851A9" fill-opacity="0.75"/>
</svg>
