<svg width="12" height="8" viewBox="0 0 12 8" fill="none" xmlns="http://www.w3.org/2000/svg">
<path d="M5.625 0C4.12501 0 3.18749 0.83335 2.8125 2.5C3.375 1.66665 4.03124 1.35415 4.78125 1.5625C5.20915 1.68135 5.51501 2.02632 5.85356 2.40811C6.40507 3.03013 7.04333 3.75 8.4375 3.75C9.93749 3.75 10.875 2.91665 11.25 1.25C10.6875 2.08335 10.0313 2.39585 9.28125 2.1875C8.85335 2.06865 8.54749 1.72368 8.20894 1.34189C7.65743 0.719873 7.01917 0 5.625 0ZM2.8125 3.75C1.31251 3.75 0.374985 4.58335 0 6.25C0.5625 5.41665 1.21874 5.10415 1.96875 5.3125C2.39665 5.43135 2.7025 5.77632 3.04106 6.1581C3.59257 6.78013 4.23083 7.5 5.625 7.5C7.12499 7.5 8.06251 6.66665 8.4375 5C7.875 5.83335 7.21876 6.14585 6.46875 5.9375C6.04085 5.81865 5.735 5.47368 5.39644 5.09189C4.84493 4.46987 4.20667 3.75 2.8125 3.75Z" fill="url(#paint0_linear_19_102)"/>
<defs>
<linearGradient id="paint0_linear_19_102" x1="-0.312525" y1="2.4" x2="9.88721" y2="7.69289" gradientUnits="userSpaceOnUse">
<stop stop-color="#2298BD"/>
<stop offset="1" stop-color="#0ED7B5"/>
</linearGradient>
</defs>
</svg>
