<svg width="24" height="24" viewBox="0 0 24 24" fill="none" xmlns="http://www.w3.org/2000/svg">
<circle cx="12" cy="12" r="12" fill="white"/>
<path d="M11.625 8C10.125 8 9.18749 8.83335 8.8125 10.5C9.375 9.66665 10.0312 9.35415 10.7812 9.5625C11.2091 9.68135 11.515 10.0263 11.8536 10.4081C12.4051 11.0301 13.0433 11.75 14.4375 11.75C15.9375 11.75 16.875 10.9167 17.25 9.25C16.6875 10.0833 16.0313 10.3958 15.2812 10.1875C14.8534 10.0687 14.5475 9.72368 14.2089 9.34189C13.6574 8.71987 13.0192 8 11.625 8ZM8.8125 11.75C7.31251 11.75 6.37499 12.5833 6 14.25C6.5625 13.4166 7.21874 13.1042 7.96875 13.3125C8.39665 13.4313 8.7025 13.7763 9.04106 14.1581C9.59257 14.7801 10.2308 15.5 11.625 15.5C13.125 15.5 14.0625 14.6666 14.4375 13C13.875 13.8333 13.2188 14.1458 12.4688 13.9375C12.0409 13.8187 11.735 13.4737 11.3964 13.0919C10.8449 12.4699 10.2067 11.75 8.8125 11.75Z" fill="url(#paint0_linear_19_102)"/>
<defs>
<linearGradient id="paint0_linear_19_102" x1="5.68747" y1="10.4" x2="15.8872" y2="15.6929" gradientUnits="userSpaceOnUse">
<stop stop-color="#2298BD"/>
<stop offset="1" stop-color="#0ED7B5"/>
</linearGradient>
</defs>
</svg>
