<svg width="307" height="344" viewBox="0 0 307 344" fill="none" xmlns="http://www.w3.org/2000/svg">
<path d="M68.4131 310.955C69.1417 289.309 68.7884 277.916 67.3265 275.912C66.1352 274.28 53.3511 267.697 38.9174 261.285C24.4836 254.872 10.2812 248.209 7.35619 246.476C4.43129 244.744 1.48304 243.328 0.804594 243.33C0.126151 243.332 -0.140335 258.553 0.212434 277.153L0.853817 310.973L32.9009 326.824C50.5268 335.542 65.4848 342.755 66.1407 342.853C66.7968 342.95 67.8194 328.596 68.4131 310.955Z" fill="#EACE09"/>
<path d="M137.492 314.963C149.232 309.087 177.709 294.456 200.774 282.448C223.839 270.441 256.933 253.622 274.315 245.074L305.92 229.532L305.256 195.512C304.89 176.801 304.399 161.492 304.164 161.493C303.929 161.494 287.333 169.68 267.285 179.685C247.237 189.69 230.09 197.878 229.18 197.881C228.271 197.884 227.341 167.854 227.114 131.147C226.886 94.4413 226.111 59.9867 225.389 54.5815L224.078 44.7541L191.875 61.569L159.673 78.3839L158.404 157.1L157.135 235.816L118.444 256.055L79.7534 276.295L79.8507 309.504L79.948 342.712L98.0472 334.179C108.002 329.485 125.752 320.838 137.492 314.963Z" fill="#EACE09"/>
<path d="M261.059 172.518C271.71 167.115 284.686 160.682 289.895 158.225C295.104 155.767 299.346 153.369 299.323 152.895C299.229 151.009 250.115 127.025 241.679 124.746C237.438 123.6 237.31 123.968 237.349 137.195C237.395 152.942 239.7 182.349 240.887 182.346C241.331 182.344 250.408 177.922 261.059 172.518Z" fill="#EACE09" fill-opacity="0.75"/>
<path d="M144.714 76.6524C142.031 74.5821 81.5191 45.0279 79.9728 45.0324C79.4794 45.0338 79.1393 60.3419 79.2168 79.0503L79.3584 113.066L112.863 128.595L146.368 144.125L146.817 111.372C147.156 86.559 146.647 78.1431 144.715 76.6524L144.714 76.6524Z" fill="#EACE09"/>
<path d="M144.598 163.816C141.915 161.745 81.4029 132.191 79.8566 132.196C79.3632 132.197 79.0231 147.505 79.1006 166.214L79.2422 200.229L112.747 215.758L146.252 231.288L146.7 198.536C147.04 173.722 146.531 165.306 144.599 163.816L144.598 163.816Z" fill="#EACE09"/>
<path d="M167.867 62.5691C194.863 48.5584 216.986 35.5999 216.071 34.3332C215.177 33.0952 198.688 24.4792 164.065 7.15784L150.143 0.192926L143.055 3.93055C139.157 5.98622 124.44 13.8349 110.351 21.372L84.7354 35.0759L91.4014 38.5838C107.819 47.2232 152.315 68.7721 153.885 68.8438C154.842 68.8875 161.133 66.0639 167.867 62.5691Z" fill="#EACE09" fill-opacity="0.75"/>
<path d="M86.2334 264.569C113.229 250.558 135.352 237.6 134.437 236.333C133.543 235.095 117.055 226.479 82.4313 209.158L68.5093 202.193L61.4214 205.93C57.523 207.986 42.8064 215.835 28.7175 223.372L3.10166 237.076L9.76759 240.584C26.1849 249.223 70.6812 270.772 72.2515 270.844C73.2078 270.887 79.4996 268.064 86.2334 264.569Z" fill="#EACE09" fill-opacity="0.75"/>
</svg>
